<svg width="6" height="8" viewBox="0 0 6 8" fill="none" xmlns="http://www.w3.org/2000/svg">
<path d="M5.03571 2.90479V2.02667C5.03571 0.9088 4.12286 0 3 0C1.87714 0 0.964286 0.9088 0.964286 2.02667V2.90479C0.322286 3.00421 0 3.42144 0 4.16V6.72C0 7.57333 0.428571 8 1.28571 8H4.71429C5.57143 8 6 7.57333 6 6.72V4.16C6 3.42144 5.67771 3.00421 5.03571 2.90479ZM3.32143 5.43448V6.29333C3.32143 6.46997 3.17743 6.61333 3 6.61333C2.82257 6.61333 2.67857 6.46997 2.67857 6.29333V5.42375C2.55514 5.32604 2.47067 5.18187 2.47067 5.01333C2.47067 4.71893 2.70858 4.48 3.00429 4.48H3.00858C3.30429 4.48 3.54429 4.71893 3.54429 5.01333C3.54429 5.18912 3.453 5.33763 3.32143 5.43448ZM4.39286 2.88H1.60714V2.02667C1.60714 1.26293 2.23286 0.64 3 0.64C3.76714 0.64 4.39286 1.26293 4.39286 2.02667V2.88Z" fill="#FDF0D5"/>
</svg>
