<svg width="74" height="74" viewBox="0 0 74 74" fill="none" xmlns="http://www.w3.org/2000/svg">
<rect width="74" height="74" rx="12" fill="#ED4122"/>
<path d="M42.1072 31.44C41.8952 30.1489 41.6158 28.9637 41.2689 27.8845C40.9221 26.8054 40.527 25.8804 40.0838 25.1095C39.6406 24.3387 39.1588 23.7317 38.6385 23.2885C38.1182 22.8645 37.5689 22.6525 36.9908 22.6525C36.4127 22.6525 35.8635 22.8645 35.3432 23.2885C34.8229 23.7317 34.3411 24.3387 33.8979 25.1095C33.4546 25.8804 33.0596 26.8054 32.7127 27.8845C32.3658 28.9637 32.0864 30.1489 31.8744 31.44H42.1072ZM31.4408 36.99C31.4408 37.626 31.4505 38.2523 31.4697 38.8689C31.5083 39.4856 31.5661 40.0926 31.6432 40.69H42.3385C42.3963 40.0926 42.4445 39.4856 42.483 38.8689C42.5215 38.2523 42.5408 37.626 42.5408 36.99C42.5408 36.3541 42.5215 35.7278 42.483 35.1111C42.4445 34.4944 42.3963 33.8874 42.3385 33.29H31.6432C31.5661 33.8874 31.5179 34.4944 31.4986 35.1111C31.4601 35.7278 31.4408 36.3541 31.4408 36.99ZM50.201 31.44C49.7963 30.4572 49.2856 29.5322 48.6689 28.665C48.0523 27.8171 47.3585 27.0463 46.5877 26.3525C45.7976 25.6395 44.94 25.0228 44.015 24.5025C43.09 23.9822 42.1072 23.5679 41.0666 23.2595C41.7796 24.2231 42.377 25.4179 42.8588 26.8439C43.3406 28.27 43.7067 29.802 43.9572 31.44H50.201ZM32.8861 23.2595C31.8648 23.5679 30.8916 23.9822 29.9666 24.5025C29.0416 25.0228 28.1937 25.6299 27.4229 26.3236C26.6327 27.0366 25.9294 27.8171 25.3127 28.665C24.696 29.5322 24.1854 30.4572 23.7807 31.44H30.0244C30.2749 29.802 30.6411 28.2796 31.1229 26.8728C31.6046 25.4468 32.1924 24.2424 32.8861 23.2595ZM50.8369 33.29H44.1885C44.2656 33.8874 44.3137 34.4944 44.333 35.1111C44.3715 35.747 44.3908 36.3733 44.3908 36.99C44.3908 37.6067 44.3812 38.2233 44.3619 38.84C44.3234 39.4567 44.2656 40.0733 44.1885 40.69H50.8369C50.9911 40.0926 51.1067 39.4856 51.1838 38.8689C51.2801 38.2523 51.3283 37.626 51.3283 36.99C51.3283 36.3541 51.2898 35.7278 51.2127 35.1111C51.1163 34.4944 50.9911 33.8874 50.8369 33.29ZM29.5908 36.99C29.5908 36.3733 29.6005 35.7567 29.6197 35.14C29.6583 34.5233 29.7161 33.9067 29.7932 33.29H23.1447C22.9906 33.8874 22.8749 34.4944 22.7979 35.1111C22.7015 35.7278 22.6533 36.3541 22.6533 36.99C22.6533 37.626 22.6919 38.2523 22.7689 38.8689C22.8653 39.4856 22.9906 40.0926 23.1447 40.69H29.7643C29.7064 40.0926 29.6679 39.4856 29.6486 38.8689C29.6101 38.233 29.5908 37.6067 29.5908 36.99ZM31.8744 42.54C32.0864 43.8312 32.3658 45.0163 32.7127 46.0955C33.0596 47.1747 33.4546 48.0997 33.8979 48.8705C34.3411 49.6413 34.8229 50.2483 35.3432 50.6916C35.8635 51.1155 36.4127 51.3275 36.9908 51.3275C37.5689 51.3275 38.1182 51.1155 38.6385 50.6916C39.1588 50.2483 39.6406 49.6413 40.0838 48.8705C40.527 48.0997 40.9221 47.1747 41.2689 46.0955C41.6158 45.0163 41.8952 43.8312 42.1072 42.54H31.8744ZM41.0955 50.7205C42.1169 50.4122 43.09 49.9978 44.015 49.4775C44.94 48.9572 45.788 48.3502 46.5588 47.6564C47.3489 46.9434 48.0523 46.1629 48.6689 45.315C49.2856 44.4478 49.8059 43.5228 50.2299 42.54H43.9861C43.7163 44.178 43.3406 45.7101 42.8588 47.1361C42.377 48.5622 41.7893 49.7569 41.0955 50.7205ZM23.7807 42.54C24.1854 43.5228 24.696 44.4478 25.3127 45.315C25.9294 46.1629 26.6231 46.9338 27.3939 47.6275C28.184 48.3405 29.0416 48.9572 29.9666 49.4775C30.8916 49.9978 31.8744 50.4122 32.915 50.7205C32.202 49.7569 31.6046 48.5622 31.1229 47.1361C30.6411 45.7101 30.2749 44.178 30.0244 42.54H23.7807Z" fill="white"/>
</svg>
