<svg width="74" height="74" viewBox="0 0 74 74" fill="none" xmlns="http://www.w3.org/2000/svg">
<path d="M0 8C0 3.58172 3.58172 0 8 0H66C70.4183 0 74 3.58172 74 8V66C74 70.4183 70.4183 74 66 74H8C3.58172 74 0 70.4183 0 66V8Z" fill="#C6D8D3"/>
<path d="M48.375 35.375H38.625V25.625C38.625 24.728 37.897 24 37 24C36.103 24 35.375 24.728 35.375 25.625V35.375H25.625C24.728 35.375 24 36.103 24 37C24 37.897 24.728 38.625 25.625 38.625H35.375V48.375C35.375 49.272 36.103 50 37 50C37.897 50 38.625 49.272 38.625 48.375V38.625H48.375C49.272 38.625 50 37.897 50 37C50 36.103 49.272 35.375 48.375 35.375Z" fill="white"/>
</svg>
