<svg width="74" height="74" viewBox="0 0 74 74" fill="none" xmlns="http://www.w3.org/2000/svg">
<rect width="74" height="74" rx="12" fill="#ED4122"/>
<path d="M51.2167 39.6835C51.2167 39.6835 52 40.8165 52 42.6498C52 45.7332 49.6999 48.2666 46.7166 48.6333C46.0166 50.7333 44.4833 52 42 52C40.3333 52 38.25 50.7169 38.25 48.4502V45.3333C38.25 42.85 40.8333 41.4832 40.8999 41.4499C41.5166 41.1332 41.7667 40.3832 41.4501 39.7665C41.1501 39.1499 40.4001 38.9001 39.7834 39.2168C39.7001 39.2501 39.0333 39.5999 38.25 40.2666V37C38.25 34.5167 40.8333 33.1499 40.8999 33.1165C41.5166 32.7999 41.7667 32.0499 41.4501 31.4332C41.1501 30.8165 40.4001 30.5668 39.7834 30.8835C39.7001 30.9168 39.0333 31.2666 38.25 31.9333V24.6335C38.25 22.6001 39.5833 22 40.3333 22C44.05 22 45.15 25.7166 45.15 25.7166C45.15 25.7166 48.6667 27.0001 48.6667 30.8668C48.6667 31.3334 48.6167 31.7835 48.5 32.2002C50.5334 32.8335 52 34.75 52 37.0167C52 38.0167 51.2167 39.6835 51.2167 39.6835ZM34.2166 30.8835C34.2999 30.9168 34.9667 31.2666 35.75 31.9333V24.6335C35.75 22.6001 34.4167 22 33.6667 22C29.95 22 28.85 25.7166 28.85 25.7166C28.85 25.7166 25.3333 27.0001 25.3333 30.8668C25.3333 31.3334 25.3833 31.7835 25.5 32.2002C23.4666 32.8335 22 34.75 22 37.0167C22 38.0167 22.7833 39.6835 22.7833 39.6835C22.7833 39.6835 22 40.8165 22 42.6498C22 45.7332 24.3001 48.2666 27.2834 48.6333C27.9834 50.7333 29.5167 52 32 52C33.6667 52 35.75 50.7169 35.75 48.4502V45.3333C35.75 42.8333 33.1334 41.4665 33.1001 41.4499C32.4834 41.1332 32.2499 40.3832 32.5499 39.7665C32.8666 39.1499 33.6166 38.9001 34.2166 39.2168C34.2999 39.2501 34.9667 39.5999 35.75 40.2666V37C35.75 34.5 33.1334 33.1332 33.1001 33.1165C32.4834 32.7999 32.2499 32.0499 32.5499 31.4332C32.8666 30.8165 33.6166 30.5668 34.2166 30.8835Z" fill="white"/>
</svg>
