<svg width="12" height="14" viewBox="0 0 12 14" fill="none" xmlns="http://www.w3.org/2000/svg">
<path d="M11.6802 6.47385C11.5352 6.61885 11.3448 6.6917 11.1545 6.6917C10.9641 6.6917 10.7737 6.61885 10.6287 6.47385L6.69277 2.5379V12.6406C6.69277 13.0511 6.36037 13.3843 5.94915 13.3843C5.53793 13.3843 5.20553 13.0511 5.20553 12.6406V2.5379L1.26959 6.47385C0.978834 6.7646 0.508821 6.7646 0.218066 6.47385C-0.0726886 6.18309 -0.0726886 5.71308 0.218066 5.42232L5.42267 0.217725C5.49182 0.148568 5.57357 0.0942536 5.66503 0.0563291C5.84647 -0.0187763 6.05183 -0.0187763 6.23327 0.0563291C6.32474 0.0942536 6.40648 0.148568 6.47564 0.217725L11.6802 5.42232C11.971 5.71308 11.971 6.18309 11.6802 6.47385Z" fill="white"/>
</svg>
