<svg width="74" height="74" viewBox="0 0 74 74" fill="none" xmlns="http://www.w3.org/2000/svg">
<path d="M0 8C0 3.58172 3.58172 0 8 0H66C70.4183 0 74 3.58172 74 8V66C74 70.4183 70.4183 74 66 74H8C3.58172 74 0 70.4183 0 66V8Z" fill="#C6D8D3"/>
<path d="M33.0889 30.3655C31.4976 32.6011 30.6691 34.7841 29.8275 37.5063L25.3956 38.4926C25.3956 38.4926 25.3561 38.5057 25.3298 38.5057C25.2378 38.5057 25.1457 38.4663 25.08 38.3874C25.0011 38.2953 24.9748 38.1638 25.0274 38.0586L26.2899 34.9156C27.171 32.6932 29.1962 31.0625 31.5634 30.6811L33.0889 30.3655ZM35.535 48.6055C35.5087 48.7238 35.5482 48.8422 35.6402 48.9211C35.6928 48.9737 35.7717 49 35.8506 49C35.8901 49 35.9295 48.9869 35.969 48.9737L39.1121 47.7112C41.3477 46.8301 42.9785 44.8181 43.3467 42.4641L43.6492 41.0438C41.4003 42.6219 39.2173 43.411 36.5213 44.1737L35.535 48.6055ZM31.3135 37.1775C31.1163 37.7956 30.919 38.44 30.7086 39.1238C30.6297 39.3474 30.6955 39.6104 30.8664 39.7814L34.1805 43.0953C34.312 43.2269 34.4829 43.2926 34.6539 43.2926C34.7065 43.2926 34.7723 43.2795 34.8249 43.2663C35.535 43.069 36.2189 42.8849 36.8501 42.7008C37.8101 42.4247 38.6781 42.1353 39.5066 41.7934L32.2604 34.5605C31.9185 35.3759 31.616 36.2438 31.3135 37.1775ZM45.9111 37.4274C45.2273 38.1112 44.5697 38.703 43.9385 39.2159C42.8864 40.0575 41.8738 40.7019 40.7954 41.2148L40.7691 41.1885L32.8785 33.3112C32.8785 33.3112 32.8654 33.2981 32.8522 33.2981C33.3914 32.1934 34.0621 31.1414 34.9432 30.063C35.443 29.4581 36.0084 28.84 36.666 28.1825C39.2699 25.5655 42.7549 25 45.2799 25C46.5818 25 47.6208 25.1447 48.1731 25.2499C48.4493 25.3025 48.6466 25.4997 48.6992 25.7627C49.0148 27.4066 49.8696 33.469 45.9111 37.4274ZM44.3988 32.6011C44.3988 30.9704 43.0705 29.6422 41.4398 29.6422C39.8091 29.6422 38.4808 30.9704 38.4808 32.6011C38.4808 34.2318 39.8091 35.5468 41.4398 35.5468C43.0705 35.5468 44.3988 34.2318 44.3988 32.6011Z" fill="white"/>
</svg>
