<svg width="74" height="74" viewBox="0 0 74 74" fill="none" xmlns="http://www.w3.org/2000/svg">
<rect width="74" height="74" rx="12" fill="#6CA6C1"/>
<rect width="40" height="40" transform="translate(17 17)" fill="#6CA6C1"/>
<path d="M52 25.8665V47.5499C52 48.0999 51.4668 48.4834 50.9168 48.3334C46.9435 47.2017 42.955 47.1966 38.9784 49.1799C38.6434 49.3466 38.2484 49.1199 38.2484 48.7449V26.755C38.2484 26.6433 38.2835 26.5317 38.3485 26.4417C39.3868 25.0167 40.9934 24.0249 42.8651 23.7983C45.8851 23.4316 48.7885 23.7984 51.5235 25.1034C51.8152 25.2417 52 25.5449 52 25.8665ZM31.1333 23.7999C28.1133 23.4332 25.2099 23.8 22.4749 25.105C22.1849 25.2433 22 25.5467 22 25.8684V47.5517C22 48.1017 22.5332 48.485 23.0832 48.335C27.0565 47.2033 31.045 47.1982 35.0216 49.1816C35.3566 49.3482 35.7516 49.1216 35.7516 48.7466V26.7566C35.7516 26.645 35.7165 26.5333 35.6515 26.4433C34.6115 25.0183 33.0066 24.0265 31.1333 23.7999Z" fill="white"/>
</svg>
