<svg width="74" height="74" viewBox="0 0 74 74" fill="none" xmlns="http://www.w3.org/2000/svg">
<rect width="74" height="74" rx="12" fill="#6CA6C1"/>
<path d="M25.9248 36.7556C25.8916 36.7556 25.8572 36.7544 25.8227 36.7507C25.3157 36.6957 24.9502 36.2422 25.0055 35.7399C25.4523 31.6858 27.9161 28.1939 31.596 26.3997C31.8815 26.2604 32.2212 26.2775 32.4907 26.4449C32.7614 26.6124 32.9264 26.9069 32.9264 27.2234V30.9513C32.9264 31.4573 32.5128 31.8679 32.0033 31.8679C31.4938 31.8679 31.0803 31.4573 31.0803 30.9513V28.8234C28.7136 30.4587 27.1617 33.0265 26.8417 35.9391C26.79 36.4072 26.3888 36.7556 25.9248 36.7556ZM42.404 47.6003C46.0839 45.8073 48.5477 42.3155 48.9945 38.2601C49.0498 37.7566 48.6843 37.3043 48.1773 37.2493C47.6653 37.1968 47.2149 37.5574 47.1595 38.0609C46.8395 40.9735 45.2876 43.5413 42.9209 45.1766V43.0487C42.9209 42.5427 42.5074 42.1321 41.9979 42.1321C41.4884 42.1321 41.0748 42.5427 41.0748 43.0487V46.7766C41.0748 47.0931 41.2398 47.3876 41.5105 47.5551C41.6594 47.6468 41.828 47.6933 41.9979 47.6933C42.1357 47.6945 42.2748 47.6639 42.404 47.6003ZM46.8457 27.8333V32.7222C46.8457 33.9444 46.2303 34.5556 44.9996 34.5556H37.6154C36.3846 34.5556 35.7693 33.9444 35.7693 32.7222V27.8333C35.7693 26.6111 36.3846 26 37.6154 26H44.9996C46.2303 26 46.8457 26.6111 46.8457 27.8333ZM42.8459 30.2778C42.8459 29.4344 42.1567 28.75 41.3075 28.75C40.4583 28.75 39.7691 29.4344 39.7691 30.2778C39.7691 31.1211 40.4583 31.8056 41.3075 31.8056C42.1567 31.8056 42.8459 31.1211 42.8459 30.2778ZM38.2307 41.2778V46.1667C38.2307 47.3889 37.6154 48 36.3846 48H29.0004C27.7697 48 27.1543 47.3889 27.1543 46.1667V41.2778C27.1543 40.0556 27.7697 39.4444 29.0004 39.4444H36.3846C37.6154 39.4444 38.2307 40.0556 38.2307 41.2778ZM34.2309 43.7222C34.2309 42.8789 33.5417 42.1944 32.6925 42.1944C31.8433 42.1944 31.1541 42.8789 31.1541 43.7222C31.1541 44.5656 31.8433 45.25 32.6925 45.25C33.5417 45.25 34.2309 44.5656 34.2309 43.7222Z" fill="white"/>
</svg>
