<svg width="30" height="30" viewBox="0 0 30 30" fill="none" xmlns="http://www.w3.org/2000/svg">
<path d="M0 4C0 1.79086 1.79086 0 4 0H26C28.2091 0 30 1.79086 30 4V26C30 28.2091 28.2091 30 26 30H4C1.79086 30 0 28.2091 0 26V4Z" fill="#166534"/>
<path d="M19.7648 14.7711C19.607 14.7711 19.4491 14.7111 19.3291 14.5903L17.9589 13.22C17.718 12.98 17.718 12.5887 17.9589 12.3478C18.1997 12.107 18.5902 12.107 18.831 12.3478L19.7656 13.2816L22.0697 10.9776C22.3105 10.7367 22.701 10.7367 22.9418 10.9776C23.1827 11.2184 23.1827 11.6089 22.9418 11.8497L20.2021 14.5895C20.0804 14.7103 19.9226 14.7711 19.7648 14.7711ZM16.9635 9.90732C16.9635 7.98137 15.3967 6.41382 13.47 6.41382C11.5432 6.41382 9.97647 7.98137 9.97647 9.90732C9.97647 11.8333 11.5432 13.4008 13.47 13.4008C15.3967 13.4008 16.9635 11.8333 16.9635 9.90732ZM15.7305 9.90732C15.7305 11.1543 14.7169 12.1678 13.47 12.1678C12.223 12.1678 11.2095 11.1543 11.2095 9.90732C11.2095 8.66034 12.223 7.64682 13.47 7.64682C14.7169 7.64682 15.7305 8.66034 15.7305 9.90732ZM19.833 21.8263V19.376C19.833 17.1886 18.5951 14.6338 15.1065 14.6338H11.8185C8.32997 14.6338 7.09204 17.1878 7.09204 19.376V21.8263C7.09204 22.1666 7.36823 22.4428 7.70854 22.4428C8.04885 22.4428 8.32504 22.1666 8.32504 21.8263V19.376C8.32504 18.5532 8.57739 15.8668 11.8185 15.8668H15.1065C18.3477 15.8668 18.6 18.5523 18.6 19.376V21.8263C18.6 22.1666 18.8762 22.4428 19.2165 22.4428C19.5568 22.4428 19.833 22.1666 19.833 21.8263Z" fill="#E9F7EF"/>
</svg>
