<svg width="30" height="30" viewBox="0 0 30 30" fill="none" xmlns="http://www.w3.org/2000/svg">
<path d="M0 4C0 1.79086 1.79086 0 4 0H26C28.2091 0 30 1.79086 30 4V26C30 28.2091 28.2091 30 26 30H4C1.79086 30 0 28.2091 0 26V4Z" fill="#B91C1C"/>
<path d="M23.2461 14.1549C23.487 14.3957 23.487 14.7862 23.2461 15.027C23.1261 15.147 22.9683 15.2079 22.8104 15.2079C22.6526 15.2079 22.4948 15.1479 22.3748 15.027L21.1664 13.8187L19.9581 15.027C19.8381 15.147 19.6803 15.2079 19.5224 15.2079C19.3646 15.2079 19.2068 15.1479 19.0868 15.027C18.8459 14.7862 18.8459 14.3957 19.0868 14.1549L20.2951 12.9466L19.0868 11.7382C18.8459 11.4974 18.8459 11.1069 19.0868 10.8661C19.3276 10.6252 19.7181 10.6252 19.9589 10.8661L21.1673 12.0744L22.3756 10.8661C22.6164 10.6252 23.0069 10.6252 23.2477 10.8661C23.4886 11.1069 23.4886 11.4974 23.2477 11.7382L22.0394 12.9466L23.2461 14.1549ZM10.2824 10.0696C10.2824 8.1436 11.8491 6.57605 13.7759 6.57605C15.7026 6.57605 17.2694 8.1436 17.2694 10.0696C17.2694 11.9955 15.7026 13.5631 13.7759 13.5631C11.8491 13.5631 10.2824 11.9955 10.2824 10.0696ZM11.5154 10.0696C11.5154 11.3165 12.5289 12.3301 13.7759 12.3301C15.0228 12.3301 16.0364 11.3165 16.0364 10.0696C16.0364 8.82258 15.0228 7.80905 13.7759 7.80905C12.5289 7.80905 11.5154 8.82258 11.5154 10.0696ZM15.4124 14.7961H12.1244C8.63588 14.7961 7.39795 17.35 7.39795 19.5382V21.9886C7.39795 22.3289 7.67414 22.6051 8.01445 22.6051C8.35476 22.6051 8.63095 22.3289 8.63095 21.9886V19.5382C8.63095 18.7154 8.8833 16.0291 12.1244 16.0291H15.4124C18.6536 16.0291 18.9059 18.7146 18.9059 19.5382V21.9886C18.9059 22.3289 19.1821 22.6051 19.5224 22.6051C19.8628 22.6051 20.1389 22.3289 20.1389 21.9886V19.5382C20.1389 17.35 18.901 14.7961 15.4124 14.7961Z" fill="#FEE2E2"/>
</svg>
