<svg width="10" height="10" viewBox="0 0 10 10" fill="none" xmlns="http://www.w3.org/2000/svg">
<path d="M6.00996 5.00008L9.79054 1.2194C10.0698 0.940835 10.0698 0.488028 9.79054 0.209461C9.51127 -0.0698203 9.05985 -0.0698203 8.78058 0.209461L5 3.99009L1.21942 0.209461C0.940146 -0.0698203 0.488732 -0.0698203 0.209457 0.209461C-0.0698189 0.488028 -0.0698189 0.940835 0.209457 1.2194L3.99004 5.00008L0.209457 8.78076C-0.0698189 9.05932 -0.0698189 9.51213 0.209457 9.7907C0.348737 9.92998 0.531589 10 0.714439 10C0.89729 10 1.08014 9.92998 1.21942 9.7907L5 6.01006L8.78058 9.7907C8.91986 9.92998 9.10271 10 9.28556 10C9.46841 10 9.65126 9.92998 9.79054 9.7907C10.0698 9.51213 10.0698 9.05932 9.79054 8.78076L6.00996 5.00008Z" fill="white"/>
</svg>
