<svg width="61" height="35" viewBox="0 0 61 35" fill="none" xmlns="http://www.w3.org/2000/svg">
<rect x="0.25" y="0.25" width="60.5" height="34.5" rx="3.75" stroke="#032746" stroke-width="0.5"/>
<path d="M47.5938 13.5L47.0166 14.2939L45.748 16.0361L47.0166 17.7793L47.5938 18.5742H42.2051V20.6514C42.2051 21.0794 41.8547 21.4297 41.4268 21.4297C40.999 21.4295 40.6494 21.0792 40.6494 20.6514V15.1113C40.6494 14.6639 40.7612 14.2358 41.0732 13.9238C41.3853 13.6118 41.8133 13.5 42.2607 13.5H47.5938Z" stroke="#032746"/>
<path d="M15.86 21V14.14H17.33L18.89 18.59C18.93 18.71 18.97 18.8433 19.01 18.99C19.0567 19.13 19.0967 19.2633 19.13 19.39C19.17 19.5167 19.2 19.6267 19.22 19.72H19.29C19.31 19.62 19.3367 19.5067 19.37 19.38C19.4033 19.2467 19.44 19.11 19.48 18.97C19.52 18.83 19.5567 18.7033 19.59 18.59L21.15 14.14H22.61V21H21.66V16.98C21.66 16.7733 21.6633 16.55 21.67 16.31C21.6767 16.0633 21.6833 15.84 21.69 15.64C21.6967 15.4333 21.7 15.2867 21.7 15.2H21.62C21.6 15.2867 21.5667 15.41 21.52 15.57C21.4733 15.7233 21.4233 15.8867 21.37 16.06C21.3233 16.2267 21.28 16.3767 21.24 16.51L19.63 21H18.81L17.2 16.51C17.16 16.3967 17.1167 16.2667 17.07 16.12C17.03 15.9667 16.9867 15.81 16.94 15.65C16.9 15.49 16.86 15.34 16.82 15.2H16.75C16.7567 15.3467 16.76 15.53 16.76 15.75C16.7667 15.9633 16.77 16.18 16.77 16.4C16.7767 16.6133 16.78 16.8067 16.78 16.98V21H15.86ZM25.4768 21.12C25.2835 21.12 25.0901 21.0967 24.8968 21.05C24.7035 21.0033 24.5235 20.9267 24.3568 20.82C24.1901 20.7133 24.0568 20.5667 23.9568 20.38C23.8568 20.1867 23.8068 19.9467 23.8068 19.66C23.8068 19.3 23.8935 19.0033 24.0668 18.77C24.2401 18.5367 24.4801 18.3567 24.7868 18.23C25.1001 18.0967 25.4701 18.0067 25.8968 17.96C26.3235 17.9067 26.7868 17.88 27.2868 17.88V17.28C27.2868 17.0867 27.2535 16.92 27.1868 16.78C27.1201 16.64 27.0001 16.5333 26.8268 16.46C26.6601 16.38 26.4201 16.34 26.1068 16.34C25.8068 16.34 25.5668 16.38 25.3868 16.46C25.2135 16.5333 25.0901 16.63 25.0168 16.75C24.9501 16.87 24.9168 17.0033 24.9168 17.15V17.3H24.0668C24.0601 17.2667 24.0568 17.2333 24.0568 17.2C24.0568 17.1667 24.0568 17.1267 24.0568 17.08C24.0568 16.76 24.1435 16.4933 24.3168 16.28C24.4968 16.06 24.7468 15.8967 25.0668 15.79C25.3868 15.6767 25.7535 15.62 26.1668 15.62C26.6068 15.62 26.9735 15.6833 27.2668 15.81C27.5668 15.9367 27.7901 16.1167 27.9368 16.35C28.0901 16.5833 28.1668 16.8633 28.1668 17.19V20.04C28.1668 20.1667 28.1968 20.2567 28.2568 20.31C28.3168 20.3567 28.3901 20.38 28.4768 20.38H28.8668V20.96C28.7735 21 28.6701 21.0333 28.5568 21.06C28.4435 21.0933 28.3135 21.11 28.1668 21.11C27.9935 21.11 27.8501 21.0733 27.7368 21C27.6235 20.9333 27.5368 20.84 27.4768 20.72C27.4168 20.5933 27.3768 20.4533 27.3568 20.3H27.2868C27.1668 20.4667 27.0135 20.6133 26.8268 20.74C26.6468 20.86 26.4435 20.9533 26.2168 21.02C25.9901 21.0867 25.7435 21.12 25.4768 21.12ZM25.6968 20.38C25.9101 20.38 26.1101 20.3467 26.2968 20.28C26.4901 20.2133 26.6601 20.12 26.8068 20C26.9535 19.8733 27.0701 19.7233 27.1568 19.55C27.2435 19.3767 27.2868 19.1867 27.2868 18.98V18.54C26.7468 18.54 26.2868 18.57 25.9068 18.63C25.5268 18.69 25.2335 18.7967 25.0268 18.95C24.8268 19.1033 24.7268 19.32 24.7268 19.6C24.7268 19.78 24.7668 19.9267 24.8468 20.04C24.9268 20.1533 25.0401 20.24 25.1868 20.3C25.3335 20.3533 25.5035 20.38 25.6968 20.38ZM29.606 21V15.74H30.316L30.396 16.61H30.466C30.5193 16.4433 30.5927 16.2867 30.686 16.14C30.7793 15.9867 30.906 15.8633 31.066 15.77C31.226 15.67 31.4227 15.62 31.656 15.62C31.756 15.62 31.846 15.63 31.926 15.65C32.0127 15.6633 32.076 15.68 32.116 15.7V16.51H31.786C31.5593 16.51 31.3627 16.55 31.196 16.63C31.036 16.7033 30.9027 16.81 30.796 16.95C30.6893 17.09 30.6093 17.2567 30.556 17.45C30.5093 17.6433 30.486 17.85 30.486 18.07V21H29.606ZM32.9263 21V13.77H33.8063V18.29L36.0363 15.74H37.0763L35.2763 17.78L37.1763 21H36.1663L34.7063 18.43L33.8063 19.34V21H32.9263Z" fill="#032746"/>
</svg>
