<svg width="48" height="48" viewBox="0 0 48 48" fill="none" xmlns="http://www.w3.org/2000/svg">
<path d="M0 14C0 6.26801 6.26801 0 14 0H34C41.732 0 48 6.26801 48 14V34C48 41.732 41.732 48 34 48H14C6.26801 48 0 41.732 0 34V14Z" fill="#E6EEF3"/>
<path d="M15 24C15 25.78 15.5278 27.5201 16.5168 29.0001C17.5057 30.4802 18.9113 31.6337 20.5558 32.3149C22.2004 32.9961 24.01 33.1743 25.7558 32.8271C27.5016 32.4798 29.1053 31.6226 30.364 30.364C31.6226 29.1053 32.4798 27.5016 32.8271 25.7558C33.1743 24.01 32.9961 22.2004 32.3149 20.5558C31.6337 18.9113 30.4802 17.5057 29.0001 16.5168C27.5201 15.5278 25.78 15 24 15C21.484 15.0095 19.069 15.9912 17.26 17.74L15 20M15 20V15M15 20H20M24 19V24L28 26" stroke="#032746" stroke-width="2" stroke-linecap="round" stroke-linejoin="round"/>
</svg>
