<svg width="40" height="40" viewBox="0 0 40 40" fill="none" xmlns="http://www.w3.org/2000/svg">
<path d="M0 14C0 6.26801 6.26801 0 14 0H26C33.732 0 40 6.26801 40 14V26C40 33.732 33.732 40 26 40H14C6.26801 40 0 33.732 0 26V14Z" fill="#E6EEF3"/>
<g clip-path="url(#clip0_50_698)">
<path d="M28.3333 19.2335V20.0002C28.3323 21.7972 27.7504 23.5458 26.6744 24.9851C25.5984 26.4244 24.086 27.4773 22.3628 27.9868C20.6395 28.4963 18.7977 28.4351 17.112 27.8124C15.4264 27.1896 13.9872 26.0386 13.0091 24.5311C12.031 23.0236 11.5665 21.2403 11.6847 19.4471C11.8029 17.654 12.4976 15.9472 13.6652 14.5811C14.8328 13.2151 16.4106 12.263 18.1635 11.867C19.9163 11.471 21.7502 11.6522 23.3916 12.3835M17.5 19.1669L20 21.6669L28.3333 13.3335" stroke="#032746" stroke-width="1.66667" stroke-linecap="round" stroke-linejoin="round"/>
</g>
<defs>
<clipPath id="clip0_50_698">
<rect width="20" height="20" fill="white" transform="translate(10 10)"/>
</clipPath>
</defs>
</svg>
