<svg width="18" height="18" viewBox="0 0 18 18" fill="none" xmlns="http://www.w3.org/2000/svg">
<path fill-rule="evenodd" clip-rule="evenodd" d="M9 0C4.0293 0 0 4.0293 0 9C0 13.9707 4.0293 18 9 18C13.9707 18 18 13.9707 18 9C18 4.0293 13.9707 0 9 0ZM12.177 12.177C12.0456 12.3084 11.8728 12.375 11.7 12.375C11.5272 12.375 11.3544 12.3093 11.223 12.177L8.52297 9.47703C8.39607 9.35013 8.325 9.1782 8.325 9V4.5C8.325 4.1274 8.6274 3.825 9 3.825C9.3726 3.825 9.675 4.1274 9.675 4.5V8.72007L12.177 11.2221C12.4407 11.4867 12.4407 11.9133 12.177 12.177Z" fill="#032746"/>
</svg>
