<svg width="20" height="20" viewBox="0 0 20 20" fill="none" xmlns="http://www.w3.org/2000/svg">
<path d="M9.99984 18.3346C14.6022 18.3346 18.3332 14.6037 18.3332 10.0013C18.3332 5.39893 14.6022 1.66797 9.99984 1.66797C5.39746 1.66797 1.6665 5.39893 1.6665 10.0013C1.6665 14.6037 5.39746 18.3346 9.99984 18.3346Z" stroke="#6CA6C1" stroke-width="1.66667" stroke-linecap="round" stroke-linejoin="round"/>
<path d="M10 15C12.7615 15 15 12.7614 15 10C15 7.23858 12.7615 5 10 5C7.23861 5 5.00003 7.23858 5.00003 10C5.00003 12.7614 7.23861 15 10 15Z" stroke="#6CA6C1" stroke-width="1.66667" stroke-linecap="round" stroke-linejoin="round"/>
<path d="M10.0002 11.6654C10.9207 11.6654 11.6669 10.9192 11.6669 9.9987C11.6669 9.07822 10.9207 8.33203 10.0002 8.33203C9.07972 8.33203 8.33353 9.07822 8.33353 9.9987C8.33353 10.9192 9.07972 11.6654 10.0002 11.6654Z" stroke="#6CA6C1" stroke-width="1.66667" stroke-linecap="round" stroke-linejoin="round"/>
</svg>
