<svg width="48" height="48" viewBox="0 0 48 48" fill="none" xmlns="http://www.w3.org/2000/svg">
<path d="M0 14C0 6.26801 6.26801 0 14 0H34C41.732 0 48 6.26801 48 14V34C48 41.732 41.732 48 34 48H14C6.26801 48 0 41.732 0 34V14Z" fill="url(#paint0_linear_50_748)"/>
<path d="M21.09 20.9991C21.3251 20.3308 21.7892 19.7672 22.4 19.4083C23.0108 19.0493 23.7289 18.9181 24.4272 19.0378C25.1255 19.1576 25.7588 19.5206 26.2151 20.0626C26.6713 20.6047 26.9211 21.2906 26.92 21.9991C26.92 23.9991 23.92 24.9991 23.92 24.9991M24 28.9991H24.01M15.85 20.6191C15.7041 19.9616 15.7265 19.278 15.9152 18.6315C16.1039 17.985 16.4528 17.3966 16.9295 16.9208C17.4062 16.4451 17.9953 16.0975 18.6422 15.9101C19.2891 15.7228 19.9728 15.7018 20.63 15.8491C20.9917 15.2834 21.49 14.8179 22.079 14.4954C22.6679 14.1729 23.3286 14.0039 24 14.0039C24.6715 14.0039 25.3321 14.1729 25.9211 14.4954C26.51 14.8179 27.0083 15.2834 27.37 15.8491C28.0282 15.7011 28.7131 15.722 29.361 15.9098C30.0089 16.0976 30.5988 16.4463 31.0759 16.9233C31.5529 17.4003 31.9015 17.9902 32.0893 18.6381C32.2771 19.2861 32.298 19.971 32.15 20.6291C32.7157 20.9908 33.1812 21.4891 33.5037 22.0781C33.8262 22.667 33.9952 23.3277 33.9952 23.9991C33.9952 24.6706 33.8262 25.3312 33.5037 25.9202C33.1812 26.5091 32.7157 27.0074 32.15 27.3691C32.2973 28.0263 32.2764 28.71 32.089 29.3569C31.9017 30.0038 31.554 30.5929 31.0783 31.0697C30.6026 31.5464 30.0142 31.8953 29.3677 32.084C28.7212 32.2727 28.0375 32.2951 27.38 32.1491C27.0188 32.717 26.5201 33.1845 25.9301 33.5084C25.3402 33.8324 24.678 34.0022 24.005 34.0022C23.332 34.0022 22.6698 33.8324 22.0799 33.5084C21.4899 33.1845 20.9912 32.717 20.63 32.1491C19.9728 32.2965 19.2891 32.2755 18.6422 32.0881C17.9953 31.9008 17.4062 31.5531 16.9295 31.0774C16.4528 30.6017 16.1039 30.0133 15.9152 29.3668C15.7265 28.7203 15.7041 28.0366 15.85 27.3791C15.28 27.0184 14.8104 26.5193 14.4851 25.9283C14.1597 25.3374 13.9891 24.6737 13.9891 23.9991C13.9891 23.3245 14.1597 22.6609 14.4851 22.0699C14.8104 21.4789 15.28 20.9799 15.85 20.6191Z" stroke="white" stroke-width="2" stroke-linecap="round" stroke-linejoin="round"/>
<defs>
<linearGradient id="paint0_linear_50_748" x1="0" y1="30.72" x2="48" y2="30.72" gradientUnits="userSpaceOnUse">
<stop stop-color="#ED4122"/>
<stop offset="1" stop-color="#EF4444"/>
</linearGradient>
</defs>
</svg>
