<svg width="40" height="40" viewBox="0 0 40 40" fill="none" xmlns="http://www.w3.org/2000/svg">
<path d="M0 14C0 6.26801 6.26801 0 14 0H26C33.732 0 40 6.26801 40 14V26C40 33.732 33.732 40 26 40H14C6.26801 40 0 33.732 0 26V14Z" fill="#22C55E"/>
<g clip-path="url(#clip0_163_252)">
<path d="M17.5749 17.4993C17.7708 16.9423 18.1575 16.4727 18.6665 16.1735C19.1755 15.8744 19.774 15.765 20.3559 15.8649C20.9378 15.9647 21.4656 16.2672 21.8458 16.7189C22.226 17.1705 22.4341 17.7422 22.4332 18.3326C22.4332 19.9993 19.9332 20.8326 19.9332 20.8326M19.9999 24.1659H20.0082M13.2082 17.1826C13.0866 16.6347 13.1053 16.065 13.2625 15.5262C13.4198 14.9875 13.7105 14.4971 14.1078 14.1007C14.5051 13.7043 14.996 13.4146 15.5351 13.2584C16.0742 13.1023 16.6439 13.0848 17.1916 13.2076C17.493 12.7362 17.9083 12.3482 18.399 12.0795C18.8898 11.8108 19.4404 11.6699 19.9999 11.6699C20.5595 11.6699 21.11 11.8108 21.6008 12.0795C22.0916 12.3482 22.5068 12.7362 22.8082 13.2076C23.3567 13.0843 23.9275 13.1017 24.4674 13.2582C25.0074 13.4147 25.4989 13.7052 25.8965 14.1027C26.294 14.5002 26.5845 14.9918 26.741 15.5318C26.8975 16.0717 26.9149 16.6425 26.7916 17.1909C27.263 17.4924 27.6509 17.9076 27.9197 18.3984C28.1884 18.8892 28.3293 19.4397 28.3293 19.9993C28.3293 20.5588 28.1884 21.1094 27.9197 21.6001C27.6509 22.0909 27.263 22.5062 26.7916 22.8076C26.9144 23.3552 26.8969 23.925 26.7408 24.4641C26.5846 25.0032 26.2949 25.4941 25.8985 25.8914C25.502 26.2886 25.0117 26.5794 24.473 26.7366C23.9342 26.8939 23.3645 26.9126 22.8166 26.7909C22.5156 27.2642 22.1 27.6538 21.6084 27.9237C21.1167 28.1936 20.5649 28.3351 20.0041 28.3351C19.4432 28.3351 18.8914 28.1936 18.3998 27.9237C17.9082 27.6538 17.4926 27.2642 17.1916 26.7909C16.6439 26.9137 16.0742 26.8962 15.5351 26.7401C14.996 26.584 14.5051 26.2943 14.1078 25.8978C13.7105 25.5014 13.4198 25.0111 13.2625 24.4723C13.1053 23.9336 13.0866 23.3638 13.2082 22.8159C12.7332 22.5153 12.3419 22.0994 12.0708 21.6069C11.7997 21.1145 11.6575 20.5614 11.6575 19.9993C11.6575 19.4371 11.7997 18.8841 12.0708 18.3916C12.3419 17.8991 12.7332 17.4832 13.2082 17.1826Z" stroke="white" stroke-width="1.66667" stroke-linecap="round" stroke-linejoin="round"/>
</g>
<defs>
<clipPath id="clip0_163_252">
<rect width="20" height="20" fill="white" transform="translate(10 10)"/>
</clipPath>
</defs>
</svg>
