<svg width="40" height="40" viewBox="0 0 40 40" fill="none" xmlns="http://www.w3.org/2000/svg">
<path d="M0 10C0 4.47715 4.47715 0 10 0H30C35.5228 0 40 4.47715 40 10V30C40 35.5228 35.5228 40 30 40H10C4.47715 40 0 35.5228 0 30V10Z" fill="#ED4122"/>
<path d="M18.3333 11.666H21.6666M19.9999 21.666L22.4999 19.166M26.6666 21.666C26.6666 25.3479 23.6818 28.3327 19.9999 28.3327C16.318 28.3327 13.3333 25.3479 13.3333 21.666C13.3333 17.9841 16.318 14.9993 19.9999 14.9993C23.6818 14.9993 26.6666 17.9841 26.6666 21.666Z" stroke="white" stroke-width="1.66667" stroke-linecap="round" stroke-linejoin="round"/>
</svg>
