<svg width="40" height="40" viewBox="0 0 40 40" fill="none" xmlns="http://www.w3.org/2000/svg">
<path d="M0 10C0 4.47715 4.47715 0 10 0H30C35.5228 0 40 4.47715 40 10V30C40 35.5228 35.5228 40 30 40H10C4.47715 40 0 35.5228 0 30V10Z" fill="#6CA6C1"/>
<g clip-path="url(#clip0_163_221)">
<path d="M20.0001 28.3327C24.6025 28.3327 28.3334 24.6017 28.3334 19.9993C28.3334 15.397 24.6025 11.666 20.0001 11.666C15.3977 11.666 11.6667 15.397 11.6667 19.9993C11.6667 24.6017 15.3977 28.3327 20.0001 28.3327Z" stroke="white" stroke-width="1.66667" stroke-linecap="round" stroke-linejoin="round"/>
<path d="M20.0001 24.9993C22.7615 24.9993 25.0001 22.7608 25.0001 19.9993C25.0001 17.2379 22.7615 14.9993 20.0001 14.9993C17.2387 14.9993 15.0001 17.2379 15.0001 19.9993C15.0001 22.7608 17.2387 24.9993 20.0001 24.9993Z" stroke="white" stroke-width="1.66667" stroke-linecap="round" stroke-linejoin="round"/>
<path d="M20.0001 21.666C20.9206 21.666 21.6667 20.9198 21.6667 19.9993C21.6667 19.0789 20.9206 18.3327 20.0001 18.3327C19.0796 18.3327 18.3334 19.0789 18.3334 19.9993C18.3334 20.9198 19.0796 21.666 20.0001 21.666Z" stroke="white" stroke-width="1.66667" stroke-linecap="round" stroke-linejoin="round"/>
</g>
<defs>
<clipPath id="clip0_163_221">
<rect width="20" height="20" fill="white" transform="translate(10 10)"/>
</clipPath>
</defs>
</svg>
