<svg width="38" height="38" viewBox="0 0 38 38" fill="none" xmlns="http://www.w3.org/2000/svg">
<path d="M8.00034 18.0638C8.00034 22.3289 8.61083 25.3773 11.0555 29.0333C12.9131 31.5042 15.395 32.1229 18.0404 30.3918C18.6262 30.0233 19.3742 30.0233 19.9613 30.3918C22.6054 32.1243 25.0872 31.5042 26.9448 29.0333C29.3895 25.3759 30 22.3289 30 18.0651C30 14.4063 27.2638 10.7502 23.8896 10.7502C22.1475 10.7502 20.5759 11.7031 19.4622 12.7302C19.3357 12.845 19.171 12.9086 19.0002 12.9086C18.8294 12.9086 18.6647 12.845 18.5382 12.7302C17.4258 11.7045 15.8528 10.7502 14.1107 10.7502C10.7365 10.7502 8.00034 14.4077 8.00034 18.0638Z" stroke="#FAD4FF" stroke-width="2.66667" stroke-linecap="round" stroke-linejoin="round"/>
<path d="M12.1253 19.0001C12.1253 16.9788 12.7495 15.7826 14.1877 14.8751M19.0002 12.1252C19.0002 10.4752 20.1923 6.62524 23.1251 6.62524" stroke="#FAD4FF" stroke-width="2.66667" stroke-linecap="round" stroke-linejoin="round"/>
</svg>
