<svg width="23" height="16" viewBox="0 0 23 16" fill="none" xmlns="http://www.w3.org/2000/svg">
<path d="M22.0371 2.68848C22.5293 4.41113 22.5293 8.10254 22.5293 8.10254C22.5293 8.10254 22.5293 11.7529 22.0371 13.5166C21.791 14.501 21.0117 15.2393 20.0684 15.4854C18.3047 15.9365 11.332 15.9365 11.332 15.9365C11.332 15.9365 4.31836 15.9365 2.55469 15.4854C1.61133 15.2393 0.832031 14.501 0.585938 13.5166C0.09375 11.7529 0.09375 8.10254 0.09375 8.10254C0.09375 8.10254 0.09375 4.41113 0.585938 2.68848C0.832031 1.7041 1.61133 0.924805 2.55469 0.678711C4.31836 0.186523 11.332 0.186523 11.332 0.186523C11.332 0.186523 18.3047 0.186523 20.0684 0.678711C21.0117 0.924805 21.791 1.7041 22.0371 2.68848ZM9.03516 11.4248L14.8594 8.10254L9.03516 4.78027V11.4248Z" fill="white"/>
</svg>
