<svg width="34" height="27" viewBox="0 0 34 27" fill="none" xmlns="http://www.w3.org/2000/svg">
<path d="M30.5133 6.70357C30.5303 6.99063 30.5303 7.29456 30.5303 7.5985C30.5303 16.6154 23.5227 27 10.6983 27C6.75236 27 3.07854 25.8856 0 23.9437C0.56128 24.0113 1.10556 24.0282 1.68385 24.0282C4.94948 24.0282 7.94297 22.9475 10.3412 21.1238C7.27964 21.0563 4.71135 19.0976 3.82691 16.3959C4.25212 16.4634 4.69435 16.4972 5.13657 16.4972C5.76589 16.4972 6.39521 16.4128 6.9735 16.2608C3.7759 15.6191 1.37768 12.8837 1.37768 9.57411V9.48968C2.31315 9.99625 3.3847 10.3171 4.52427 10.3508C2.65333 9.11819 1.41171 7.04126 1.41171 4.67728C1.41171 3.41087 1.75187 2.24577 2.36418 1.23264C5.7999 5.3696 10.9535 8.07129 16.7364 8.37523C16.6343 7.86866 16.5663 7.34521 16.5663 6.82176C16.5663 3.05628 19.6788 0 23.5398 0C25.5468 0 27.3667 0.827374 28.6253 2.14445C30.2071 1.85739 31.7038 1.28331 33.0475 0.506572C32.5372 2.09382 31.4317 3.42775 29.986 4.25514C31.3807 4.10317 32.7414 3.7317 34 3.20825C33.0475 4.55909 31.8569 5.75796 30.4962 6.73732L30.5133 6.70357Z" fill="#25314C"/>
</svg>
