<svg width="30" height="30" viewBox="0 0 30 30" fill="none" xmlns="http://www.w3.org/2000/svg">
<path d="M17.6625 14.1749C18.15 12.1249 16.3625 10.3374 14.3125 10.8249C13.35 11.0624 12.5625 11.8499 12.325 12.8124C11.8375 14.8624 13.625 16.6499 15.675 16.1624C16.65 15.9249 17.4375 15.1374 17.6625 14.1749Z" fill="#FEFEFC"/>
<path d="M7.52495 22.4625C7.29995 22.4625 7.06245 22.375 6.88745 22.2125C4.46245 19.9625 3.07495 16.7875 3.07495 13.4875C3.07495 6.9125 8.42495 1.5625 15 1.5625C21.575 1.5625 26.925 6.9125 26.925 13.4875C26.925 16.8125 25.5875 19.8875 23.1625 22.175C22.7875 22.525 22.1875 22.5125 21.8375 22.1375C21.4874 21.7625 21.5 21.1625 21.875 20.8125C23.925 18.8875 25.05 16.3 25.05 13.5C25.05 7.9625 20.5375 3.45 15 3.45C9.46245 3.45 4.94995 7.9625 4.94995 13.5C4.94995 16.325 6.08745 18.925 8.16245 20.85C8.53745 21.2 8.56245 21.8 8.21245 22.175C8.02495 22.3625 7.77495 22.4625 7.52495 22.4625Z" fill="#FEFEFC"/>
<path d="M20 19.125C19.775 19.125 19.5375 19.0375 19.3625 18.875C18.9875 18.525 18.9625 17.925 19.325 17.55C20.3625 16.45 20.9375 15 20.9375 13.5C20.9375 10.225 18.275 7.57495 15.0125 7.57495C11.75 7.57495 9.08752 10.2375 9.08752 13.5C9.08752 15.0125 9.66252 16.45 10.7 17.55C11.05 17.925 11.0375 18.525 10.6625 18.875C10.2875 19.2375 9.68752 19.2125 9.33752 18.8375C7.97502 17.3875 7.21252 15.4875 7.21252 13.5C7.21252 9.19995 10.7125 5.69995 15.0125 5.69995C19.3125 5.69995 22.8125 9.19995 22.8125 13.5C22.8125 15.4875 22.0625 17.3875 20.6875 18.8375C20.5 19.025 20.25 19.125 20 19.125Z" fill="#FEFEFC"/>
<path d="M12.875 20.825L11.075 23.0625C9.64998 24.85 10.925 27.5 13.2 27.5H16.7875C19.075 27.5 20.35 24.85 18.9125 23.075L17.1125 20.8375C16.0375 19.4625 13.9625 19.4625 12.875 20.825Z" fill="#FEFEFC"/>
</svg>
