<svg width="80" height="80" viewBox="0 0 80 80" fill="none" xmlns="http://www.w3.org/2000/svg">
<path d="M0 16C0 7.16344 7.16344 0 16 0H64C72.8366 0 80 7.16344 80 16V64C80 72.8366 72.8366 80 64 80H16C7.16344 80 0 72.8366 0 64V16Z" fill="url(#paint0_linear_28_3806)"/>
<path d="M25.093 40.5221C24.968 40.1853 24.968 39.8148 25.093 39.4781C26.3106 36.5258 28.3773 34.0016 31.0312 32.2254C33.6851 30.4492 36.8066 29.501 40 29.501C43.1935 29.501 46.315 30.4492 48.9689 32.2254C51.6228 34.0016 53.6895 36.5258 54.907 39.4781C55.032 39.8148 55.032 40.1853 54.907 40.5221C53.6895 43.4743 51.6228 45.9985 48.9689 47.7747C46.315 49.5509 43.1935 50.4991 40 50.4991C36.8066 50.4991 33.6851 49.5509 31.0312 47.7747C28.3773 45.9985 26.3106 43.4743 25.093 40.5221Z" stroke="white" stroke-width="3" stroke-linecap="round" stroke-linejoin="round"/>
<path d="M40 44.5001C42.4853 44.5001 44.5 42.4853 44.5 40.0001C44.5 37.5148 42.4853 35.5001 40 35.5001C37.5147 35.5001 35.5 37.5148 35.5 40.0001C35.5 42.4853 37.5147 44.5001 40 44.5001Z" stroke="white" stroke-width="3" stroke-linecap="round" stroke-linejoin="round"/>
<defs>
<linearGradient id="paint0_linear_28_3806" x1="0" y1="0" x2="80" y2="80" gradientUnits="userSpaceOnUse">
<stop stop-color="#032746"/>
<stop offset="1" stop-color="#173B50"/>
</linearGradient>
</defs>
</svg>
