<svg width="64" height="64" viewBox="0 0 64 64" fill="none" xmlns="http://www.w3.org/2000/svg">
<path d="M0 16C0 7.16344 7.16344 0 16 0H48C56.8366 0 64 7.16344 64 16V48C64 56.8366 56.8366 64 48 64H16C7.16344 64 0 56.8366 0 48V16Z" fill="#032746"/>
<path d="M32.0001 34.6667L37.3334 29.3334M20.4534 41.3334C19.283 39.3064 18.6668 37.0072 18.6667 34.6666C18.6667 32.3261 19.2827 30.0267 20.4529 27.9997C21.6231 25.9727 23.3063 24.2895 25.3333 23.1192C27.3602 21.9489 29.6595 21.3328 32.0001 21.3328C34.3406 21.3328 36.6399 21.9489 38.6669 23.1192C40.6939 24.2895 42.377 25.9727 43.5473 27.9997C44.7175 30.0267 45.3335 32.3261 45.3334 34.6666C45.3333 37.0072 44.7171 39.3064 43.5467 41.3334" stroke="white" stroke-width="2.66667" stroke-linecap="round" stroke-linejoin="round"/>
</svg>
