<svg width="60" height="60" viewBox="0 0 60 60" fill="none" xmlns="http://www.w3.org/2000/svg">
<rect width="60" height="60" rx="10" fill="#ED4122"/>
<path d="M41.3056 19.15V29.7099C41.3056 29.9534 41.1119 30.15 40.8722 30.15H18.6278C18.3881 30.15 18.1944 29.9534 18.1944 29.7099V19.15C18.1944 16.2167 19.6389 14.75 22.5278 14.75H36.9722C39.8611 14.75 41.3056 16.2167 41.3056 19.15ZM42.3166 32.35H17.1834C16.9436 32.35 16.75 32.5466 16.75 32.7901V33.8167C16.75 35.7717 17.7134 36.75 19.6389 36.75H39.8611C41.7866 36.75 42.75 35.7717 42.75 33.8167V32.7901C42.75 32.5466 42.5564 32.35 42.3166 32.35Z" fill="white"/>
</svg>
