<svg width="24" height="24" viewBox="0 0 24 24" fill="none" xmlns="http://www.w3.org/2000/svg">
<path d="M11.292 21.7061L4.29293 14.707C4.09793 14.512 3.99996 14.256 3.99996 14C3.99996 13.744 4.09793 13.488 4.29293 13.293C4.68393 12.902 5.31599 12.902 5.70699 13.293L11 18.5859L11 3C11 2.447 11.448 2 12 2C12.552 2 13 2.447 13 3L13 18.5859L18.2929 13.293C18.6839 12.902 19.316 12.902 19.707 13.293C20.098 13.684 20.098 14.316 19.707 14.707L12.708 21.7061C12.615 21.7991 12.505 21.8721 12.382 21.9231C12.138 22.0241 11.8619 22.0241 11.6179 21.9231C11.4949 21.8721 11.385 21.7991 11.292 21.7061Z" fill="#032746"/>
</svg>
