<svg width="80" height="80" viewBox="0 0 80 80" fill="none" xmlns="http://www.w3.org/2000/svg">
<path d="M0 16C0 7.16344 7.16344 0 16 0H64C72.8366 0 80 7.16344 80 16V64C80 72.8366 72.8366 80 64 80H16C7.16344 80 0 72.8366 0 64V16Z" fill="url(#paint0_linear_28_3856)"/>
<path d="M37 40V37C37 36.2044 37.3161 35.4413 37.8787 34.8787C38.4413 34.3161 39.2044 34 40 34C40.7956 34 41.5587 34.3161 42.1213 34.8787C42.6839 35.4413 43 36.2044 43 37V40M44.5 25H31C30.2044 25 29.4413 25.3161 28.8787 25.8787C28.3161 26.4413 28 27.2044 28 28V52C28 52.7956 28.3161 53.5587 28.8787 54.1213C29.4413 54.6839 30.2044 55 31 55H49C49.7956 55 50.5587 54.6839 51.1213 54.1213C51.6839 53.5587 52 52.7956 52 52V32.5L44.5 25ZM35.5 40H44.5C45.3284 40 46 40.6716 46 41.5V47.5C46 48.3284 45.3284 49 44.5 49H35.5C34.6716 49 34 48.3284 34 47.5V41.5C34 40.6716 34.6716 40 35.5 40Z" stroke="white" stroke-width="3" stroke-linecap="round" stroke-linejoin="round"/>
<defs>
<linearGradient id="paint0_linear_28_3856" x1="0" y1="0" x2="80" y2="80" gradientUnits="userSpaceOnUse">
<stop stop-color="#032746"/>
<stop offset="1" stop-color="#173B50"/>
</linearGradient>
</defs>
</svg>
