<svg width="60" height="60" viewBox="0 0 60 60" fill="none" xmlns="http://www.w3.org/2000/svg">
  <rect width="60" height="60" rx="10" fill="#ED4122"/>
  <g transform="translate(15, 15)">
    <path d="M21.1786 10.25H11.3393V7.58333C11.3393 6.43667 11.8006 5.34327 12.6285 4.5166C13.4699 3.70327 14.5829 3.25 15.75 3.25C17.7721 3.25 19.5227 4.58326 20.0113 6.50326C20.1606 7.03659 20.7172 7.35664 21.2465 7.22331C21.8029 7.07664 22.1287 6.54341 21.993 5.99675C21.2601 3.21008 18.695 1.25 15.75 1.25C14.04 1.25 12.4249 1.90319 11.1899 3.10319C9.96843 4.31652 9.30357 5.90333 9.30357 7.58333V10.3275C7.27057 10.6381 6.25 11.942 6.25 14.25V22.25C6.25 24.9167 7.60714 26.25 10.3214 26.25H21.1786C23.8929 26.25 25.25 24.9167 25.25 22.25V14.25C25.25 11.5833 23.8929 10.25 21.1786 10.25ZM16.7679 18.2327V20.9167C16.7679 21.4687 16.3119 21.9167 15.75 21.9167C15.1881 21.9167 14.7321 21.4687 14.7321 20.9167V18.1992C14.3413 17.8939 14.0738 17.4433 14.0738 16.9167C14.0738 15.9967 14.8272 15.25 15.7636 15.25H15.7772C16.7136 15.25 17.4736 15.9967 17.4736 16.9167C17.4736 17.466 17.1845 17.9301 16.7679 18.2327Z" fill="white"/>
  </g>
</svg>
