<svg width="80" height="80" viewBox="0 0 80 80" fill="none" xmlns="http://www.w3.org/2000/svg">
<path d="M0 16C0 7.16344 7.16344 0 16 0H64C72.8366 0 80 7.16344 80 16V64C80 72.8366 72.8366 80 64 80H16C7.16344 80 0 72.8366 0 64V16Z" fill="url(#paint0_linear_29_4209)"/>
<path d="M37 25V29.5C37 29.8978 37.158 30.2794 37.4393 30.5607C37.7206 30.842 38.1022 31 38.5 31H46M49 49V40C49 39.6022 48.842 39.2206 48.5607 38.9393C48.2794 38.658 47.8978 38.5 47.5 38.5H38.5C38.1022 38.5 37.7206 38.658 37.4393 38.9393C37.158 39.2206 37 39.6022 37 40V49M49 55H28C27.2044 55 26.4413 54.6839 25.8787 54.1213C25.3161 53.5587 25 52.7956 25 52V31M34 49C33.2044 49 32.4413 48.6839 31.8787 48.1213C31.3161 47.5587 31 46.7956 31 46V28C31 27.2044 31.3161 26.4413 31.8787 25.8787C32.4413 25.3161 33.2044 25 34 25H47.758C48.5536 25.0002 49.3165 25.3164 49.879 25.879L54.121 30.121C54.6836 30.6835 54.9998 31.4464 55 32.242V46C55 46.3952 54.9219 46.7866 54.7702 47.1515C54.6185 47.5165 54.3962 47.8479 54.116 48.1266C53.8359 48.4054 53.5034 48.6261 53.1377 48.776C52.7719 48.9258 52.3802 49.002 51.985 49H34Z" stroke="white" stroke-width="3" stroke-linecap="round" stroke-linejoin="round"/>
<defs>
<linearGradient id="paint0_linear_29_4209" x1="0" y1="0" x2="80" y2="80" gradientUnits="userSpaceOnUse">
<stop stop-color="#032746"/>
<stop offset="1" stop-color="#173B50"/>
</linearGradient>
</defs>
</svg>
