<svg width="80" height="80" viewBox="0 0 80 80" fill="none" xmlns="http://www.w3.org/2000/svg">
<path d="M0 16C0 7.16344 7.16344 0 16 0H64C72.8366 0 80 7.16344 80 16V64C80 72.8366 72.8366 80 64 80H16C7.16344 80 0 72.8366 0 64V16Z" fill="url(#paint0_linear_28_3820)"/>
<path d="M40 29.5C40.0018 28.9 39.8835 28.3057 39.6523 27.7522C39.421 27.1986 39.0814 26.6968 38.6534 26.2764C38.2254 25.856 37.7176 25.5254 37.16 25.304C36.6023 25.0827 36.0061 24.9752 35.4062 24.9877C34.8064 25.0002 34.2151 25.1325 33.6672 25.3769C33.1193 25.6212 32.6257 25.9727 32.2156 26.4106C31.8055 26.8485 31.4871 27.3639 31.2791 27.9267C31.0711 28.4894 30.9777 29.0881 31.0045 29.6875C30.1228 29.9142 29.3042 30.3385 28.6108 30.9284C27.9174 31.5183 27.3673 32.2583 27.0023 33.0922C26.6372 33.9262 26.4666 34.8323 26.5036 35.7419C26.5405 36.6515 26.784 37.5408 27.2155 38.3425C26.4568 38.9589 25.8601 39.7513 25.4775 40.6509C25.0949 41.5504 24.9378 42.5298 25.02 43.5039C25.1022 44.478 25.4212 45.4173 25.9492 46.24C26.4772 47.0627 27.1982 47.7439 28.0495 48.2245C27.9444 49.0378 28.0071 49.8641 28.2338 50.6522C28.4605 51.4404 28.8464 52.1737 29.3677 52.8069C29.8889 53.4401 30.5344 53.9597 31.2643 54.3336C31.9942 54.7075 32.7931 54.9278 33.6115 54.981C34.4299 55.0341 35.2505 54.9188 36.0226 54.6424C36.7947 54.3659 37.5019 53.9341 38.1006 53.3736C38.6993 52.8131 39.1768 52.1358 39.5034 51.3836C39.8301 50.6313 39.9991 49.8201 40 49V29.5Z" stroke="white" stroke-width="3" stroke-linecap="round" stroke-linejoin="round"/>
<path d="M40 29.5C39.9983 28.9 40.1165 28.3057 40.3477 27.7522C40.579 27.1986 40.9186 26.6968 41.3466 26.2764C41.7746 25.856 42.2824 25.5254 42.84 25.304C43.3977 25.0827 43.994 24.9752 44.5938 24.9877C45.1936 25.0002 45.7849 25.1325 46.3328 25.3769C46.8808 25.6212 47.3743 25.9727 47.7844 26.4106C48.1945 26.8485 48.513 27.3639 48.7209 27.9267C48.9289 28.4894 49.0223 29.0881 48.9955 29.6875C49.8772 29.9142 50.6958 30.3385 51.3892 30.9284C52.0826 31.5183 52.6327 32.2583 52.9978 33.0922C53.3628 33.9262 53.5334 34.8323 53.4964 35.7419C53.4595 36.6515 53.216 37.5408 52.7845 38.3425C53.5433 38.9589 54.1399 39.7513 54.5225 40.6509C54.9051 41.5504 55.0622 42.5298 54.98 43.5039C54.8978 44.478 54.5788 45.4173 54.0508 46.24C53.5228 47.0627 52.8018 47.7439 51.9505 48.2245C52.0556 49.0378 51.9929 49.8641 51.7662 50.6522C51.5395 51.4404 51.1536 52.1737 50.6323 52.8069C50.1111 53.4401 49.4656 53.9597 48.7357 54.3336C48.0058 54.7075 47.207 54.9278 46.3886 54.981C45.5702 55.0341 44.7496 54.9188 43.9774 54.6424C43.2053 54.3659 42.4981 53.9341 41.8994 53.3736C41.3007 52.8131 40.8233 52.1358 40.4966 51.3836C40.1699 50.6313 40.0009 49.8201 40 49V29.5Z" stroke="white" stroke-width="3" stroke-linecap="round" stroke-linejoin="round"/>
<path d="M44.5 41.5C43.2407 41.057 42.141 40.2505 41.34 39.1825C40.539 38.1145 40.0727 36.833 40 35.5C39.9273 36.833 39.461 38.1145 38.66 39.1825C37.859 40.2505 36.7593 41.057 35.5 41.5" stroke="white" stroke-width="3" stroke-linecap="round" stroke-linejoin="round"/>
<path d="M48.3984 31.75C48.7615 31.1209 48.9668 30.4132 48.9969 29.6875" stroke="white" stroke-width="3" stroke-linecap="round" stroke-linejoin="round"/>
<path d="M31.0044 29.6875C31.0341 30.4131 31.2389 31.1207 31.6014 31.75" stroke="white" stroke-width="3" stroke-linecap="round" stroke-linejoin="round"/>
<path d="M27.2156 38.344C27.49 38.1205 27.7836 37.9217 28.0931 37.75" stroke="white" stroke-width="3" stroke-linecap="round" stroke-linejoin="round"/>
<path d="M51.907 37.75C52.2164 37.9217 52.5101 38.1205 52.7845 38.344" stroke="white" stroke-width="3" stroke-linecap="round" stroke-linejoin="round"/>
<path d="M31.0001 49C29.9663 49.0004 28.95 48.7338 28.0496 48.226" stroke="white" stroke-width="3" stroke-linecap="round" stroke-linejoin="round"/>
<path d="M51.9505 48.226C51.0501 48.7338 50.0338 49.0004 49 49" stroke="white" stroke-width="3" stroke-linecap="round" stroke-linejoin="round"/>
<defs>
<linearGradient id="paint0_linear_28_3820" x1="0" y1="0" x2="80" y2="80" gradientUnits="userSpaceOnUse">
<stop stop-color="#032746"/>
<stop offset="1" stop-color="#173B50"/>
</linearGradient>
</defs>
</svg>
