<svg width="80" height="80" viewBox="0 0 80 80" fill="none" xmlns="http://www.w3.org/2000/svg">
<path d="M0 16C0 7.16344 7.16344 0 16 0H64C72.8366 0 80 7.16344 80 16V64C80 72.8366 72.8366 80 64 80H16C7.16344 80 0 72.8366 0 64V16Z" fill="url(#paint0_linear_29_4250)"/>
<path d="M43 25V31C43 31.7956 43.3161 32.5587 43.8787 33.1213C44.4413 33.6839 45.2044 34 46 34H52M28.402 53.5C28.6647 53.9549 29.0422 54.3329 29.4968 54.5962C29.9514 54.8594 30.4672 54.9987 30.9925 55H49C49.7956 55 50.5587 54.6839 51.1213 54.1213C51.6839 53.5587 52 52.7956 52 52V32.5L44.5 25H31C30.2044 25 29.4413 25.3161 28.8787 25.8787C28.3161 26.4413 28 27.2044 28 28V32.5M35.5 49L33.25 46.75M34 43C34 45.4853 31.9853 47.5 29.5 47.5C27.0147 47.5 25 45.4853 25 43C25 40.5147 27.0147 38.5 29.5 38.5C31.9853 38.5 34 40.5147 34 43Z" stroke="white" stroke-width="3" stroke-linecap="round" stroke-linejoin="round"/>
<defs>
<linearGradient id="paint0_linear_29_4250" x1="0" y1="0" x2="80" y2="80" gradientUnits="userSpaceOnUse">
<stop stop-color="#032746"/>
<stop offset="1" stop-color="#173B50"/>
</linearGradient>
</defs>
</svg>
