<svg width="70" height="70" viewBox="0 0 70 70" xmlns="http://www.w3.org/2000/svg">
  <!-- Outer Blue Circle -->
  <circle cx="35" cy="35" r="35" fill="#6CA6C1"/>

  <!-- Centered White Icon -->
  <g transform="translate(20, 20)">
    <path d="M17.6624 14.1749C18.1499 12.1249 16.3624 10.3374 14.3124 10.8249C13.3499 11.0624 12.5624 11.8499 12.3249 12.8124C11.8374 14.8624 13.6249 16.6499 15.6749 16.1624C16.6499 15.9249 17.4374 15.1374 17.6624 14.1749Z" fill="#FEFEFC"/>
    <path d="M7.52495 22.4625C7.29995 22.4625 7.06245 22.375 6.88745 22.2125C4.46245 19.9625 3.07495 16.7875 3.07495 13.4875C3.07495 6.9125 8.42495 1.5625 15 1.5625C21.575 1.5625 26.925 6.9125 26.925 13.4875C26.925 16.8125 25.5875 19.8875 23.1625 22.175C22.7875 22.525 22.1875 22.5125 21.8375 22.1375C21.4874 21.7625 21.5 21.1625 21.875 20.8125C23.925 18.8875 25.05 16.3 25.05 13.5C25.05 7.9625 20.5375 3.45 15 3.45C9.46245 3.45 4.94995 7.9625 4.94995 13.5C4.94995 16.325 6.08745 18.925 8.16245 20.85C8.53745 21.2 8.56245 21.8 8.21245 22.175C8.02495 22.3625 7.77495 22.4625 7.52495 22.4625Z" fill="#FEFEFC"/>
    <path d="M19.9999 19.125C19.7749 19.125 19.5374 19.0375 19.3624 18.875C18.9874 18.525 18.9624 17.925 19.3249 17.55C20.3624 16.45 20.9374 15 20.9374 13.5C20.9374 10.225 18.2749 7.57495 15.0124 7.57495C11.7499 7.57495 9.0874 10.2375 9.0874 13.5C9.0874 15.0125 9.6624 16.45 10.6999 17.55C11.0499 17.925 11.0374 18.525 10.6624 18.875C10.2874 19.2375 9.6874 19.2125 9.3374 18.8375C7.9749 17.3875 7.2124 15.4875 7.2124 13.5C7.2124 9.19995 10.7124 5.69995 15.0124 5.69995C19.3124 5.69995 22.8124 9.19995 22.8124 13.5C22.8124 15.4875 22.0624 17.3875 20.6874 18.8375C20.4999 19.025 20.2499 19.125 19.9999 19.125Z" fill="#FEFEFC"/>
    <path d="M12.8751 20.825L11.0751 23.0625C9.6501 24.85 10.9251 27.5 13.2001 27.5H16.7876C19.0751 27.5 20.3501 24.85 18.9126 23.075L17.1126 20.8375C16.0376 19.4625 13.9626 19.4625 12.8751 20.825Z" fill="#FEFEFC"/>
  </g>
</svg>
