<svg width="60" height="60" viewBox="0 0 60 60" fill="none" xmlns="http://www.w3.org/2000/svg">
<rect width="60" height="60" rx="10" fill="#ED4122"/>
<path d="M34.6897 33.2754L30 38.125L25.3103 33.2754C24.4427 33.3262 23.6243 33.5293 22.8549 33.8848C22.0856 34.2572 21.4144 34.748 20.8415 35.3574C20.2686 35.9668 19.8185 36.6777 19.4911 37.4902C19.1637 38.3027 19 39.166 19 40.0801V40.5625C19 41.2396 19.2292 41.8151 19.6875 42.2891C20.1458 42.763 20.7024 43 21.3571 43H38.6429C39.2976 43 39.8542 42.763 40.3125 42.2891C40.7708 41.8151 41 41.2396 41 40.5625V40.0801C41 39.166 40.8363 38.3027 40.5089 37.4902C40.1815 36.6777 39.7314 35.9668 39.1585 35.3574C38.5856 34.748 37.9144 34.2572 37.1451 33.8848C36.3757 33.5293 35.5573 33.3262 34.6897 33.2754ZM19.6629 21.0625L19.9821 21.1387V24.084C19.8185 24.2025 19.6793 24.3464 19.5647 24.5156C19.4501 24.7018 19.3929 24.9049 19.3929 25.125C19.3929 25.3451 19.442 25.5397 19.5402 25.709C19.6384 25.8783 19.7693 26.0137 19.933 26.1152L19.1719 29.2891C19.1228 29.4583 19.1391 29.6191 19.221 29.7715C19.3028 29.9238 19.4092 30 19.5402 30H21.6027C21.7336 30 21.84 29.9238 21.9219 29.7715C22.0037 29.6191 22.0201 29.4583 21.971 29.2891L21.2098 26.1152C21.3735 26.0137 21.5045 25.8783 21.6027 25.709C21.7009 25.5397 21.75 25.3451 21.75 25.125C21.75 24.9049 21.7009 24.7103 21.6027 24.541C21.4881 24.3548 21.3408 24.2025 21.1607 24.084V21.418L24.4018 22.2305C24.189 22.6706 24.0253 23.1276 23.9107 23.6016C23.7798 24.0924 23.7143 24.6003 23.7143 25.125C23.7143 26.0221 23.878 26.8685 24.2054 27.6641C24.5327 28.4427 24.9829 29.1283 25.5558 29.7207C26.1287 30.3132 26.7917 30.7786 27.5446 31.1172C28.314 31.4557 29.1324 31.625 30 31.625C30.8676 31.625 31.686 31.4557 32.4554 31.1172C33.2083 30.7786 33.8713 30.3132 34.4442 29.7207C35.0171 29.1283 35.4673 28.4427 35.7946 27.6641C36.122 26.8685 36.2857 26.0221 36.2857 25.125C36.2857 24.6003 36.2284 24.1009 36.1138 23.627C35.9829 23.1361 35.811 22.6706 35.5982 22.2305L40.3371 21.0625C40.779 20.944 41 20.6732 41 20.25C41 19.8268 40.779 19.5645 40.3371 19.4629L30.9821 17.127C30.6548 17.0423 30.3274 17 30 17C29.6726 17 29.3452 17.0423 29.0179 17.127L19.6629 19.4375C19.221 19.556 19 19.8268 19 20.25C19 20.6732 19.221 20.944 19.6629 21.0625Z" fill="white"/>
</svg>
