<svg width="22" height="26" viewBox="0 0 22 26" fill="none" xmlns="http://www.w3.org/2000/svg">
<path d="M15.6897 16.2754L11 21.125L6.31027 16.2754C5.44271 16.3262 4.62426 16.5293 3.85491 16.8848C3.08557 17.2572 2.41443 17.748 1.84152 18.3574C1.2686 18.9668 0.818452 19.6777 0.491071 20.4902C0.16369 21.3027 0 22.166 0 23.0801V23.5625C0 24.2396 0.229167 24.8151 0.6875 25.2891C1.14583 25.763 1.70238 26 2.35714 26H19.6429C20.2976 26 20.8542 25.763 21.3125 25.2891C21.7708 24.8151 22 24.2396 22 23.5625V23.0801C22 22.166 21.8363 21.3027 21.5089 20.4902C21.1815 19.6777 20.7314 18.9668 20.1585 18.3574C19.5856 17.748 18.9144 17.2572 18.1451 16.8848C17.3757 16.5293 16.5573 16.3262 15.6897 16.2754ZM0.662946 4.0625L0.982143 4.13867V7.08398C0.818452 7.20247 0.679315 7.34635 0.564732 7.51562C0.450149 7.70182 0.392857 7.90495 0.392857 8.125C0.392857 8.34505 0.441964 8.53971 0.540179 8.70898C0.638393 8.87826 0.769345 9.01367 0.933036 9.11523L0.171875 12.2891C0.122768 12.4583 0.139137 12.6191 0.220982 12.7715C0.302827 12.9238 0.409226 13 0.540179 13H2.60268C2.73363 13 2.84003 12.9238 2.92188 12.7715C3.00372 12.6191 3.02009 12.4583 2.97098 12.2891L2.20982 9.11523C2.37351 9.01367 2.50446 8.87826 2.60268 8.70898C2.70089 8.53971 2.75 8.34505 2.75 8.125C2.75 7.90495 2.70089 7.71029 2.60268 7.54102C2.4881 7.35482 2.34077 7.20247 2.16071 7.08398V4.41797L5.40179 5.23047C5.18899 5.67057 5.0253 6.1276 4.91071 6.60156C4.77976 7.09245 4.71429 7.60026 4.71429 8.125C4.71429 9.02213 4.87798 9.86849 5.20536 10.6641C5.53274 11.4427 5.98289 12.1283 6.5558 12.7207C7.12872 13.3132 7.79167 13.7786 8.54464 14.1172C9.31399 14.4557 10.1324 14.625 11 14.625C11.8676 14.625 12.686 14.4557 13.4554 14.1172C14.2083 13.7786 14.8713 13.3132 15.4442 12.7207C16.0171 12.1283 16.4673 11.4427 16.7946 10.6641C17.122 9.86849 17.2857 9.02213 17.2857 8.125C17.2857 7.60026 17.2284 7.10091 17.1138 6.62695C16.9829 6.13607 16.811 5.67057 16.5982 5.23047L21.3371 4.0625C21.779 3.94401 22 3.67318 22 3.25C22 2.82682 21.779 2.56445 21.3371 2.46289L11.9821 0.126953C11.6548 0.0423183 11.3274 0 11 0C10.6726 0 10.3452 0.0423183 10.0179 0.126953L0.662946 2.4375C0.220982 2.55599 0 2.82682 0 3.25C0 3.67318 0.220982 3.94401 0.662946 4.0625Z" fill="white"/>
</svg>
