<svg width="60" height="60" viewBox="0 0 60 60" fill="none" xmlns="http://www.w3.org/2000/svg">
<rect width="60" height="60" rx="10" fill="#ED4122"/>
<path d="M37.1375 30.95C37.3375 30.9375 37.5 30.775 37.5 30.575V27.1875H33.75C30.725 27.1875 29.0625 25.525 29.0625 22.5V18.75H22.5C20 18.75 18.75 20 18.75 22.5V37.5C18.75 40 20 41.25 22.5 41.25H31.5125C31.8 41.25 32 40.9375 31.85 40.6875C31.2625 39.725 30.9375 38.6 30.9375 37.4C30.9375 33.9625 33.7375 31.1375 37.1375 30.95ZM28.75 35.9375H23.75C23.2325 35.9375 22.8125 35.5175 22.8125 35C22.8125 34.4825 23.2325 34.0625 23.75 34.0625H28.75C29.2675 34.0625 29.6875 34.4825 29.6875 35C29.6875 35.5175 29.2675 35.9375 28.75 35.9375ZM23.75 30.9375C23.2325 30.9375 22.8125 30.5175 22.8125 30C22.8125 29.4825 23.2325 29.0625 23.75 29.0625H32.5C33.0175 29.0625 33.4375 29.4825 33.4375 30C33.4375 30.5175 33.0175 30.9375 32.5 30.9375H23.75ZM30.9375 22.5V19.6875L36.5625 25.3125H33.75C31.775 25.3125 30.9375 24.475 30.9375 22.5ZM43.1625 41.8375L41.225 39.9C41.6975 39.1788 41.9788 38.3212 41.9788 37.3962C41.9788 34.8687 39.9225 32.8125 37.3962 32.8125C34.8687 32.8125 32.8125 34.8687 32.8125 37.3962C32.8125 39.9237 34.8687 41.98 37.3962 41.98C38.3212 41.98 39.1787 41.7 39.8999 41.2275L41.8375 43.1638C42.02 43.3463 42.26 43.4388 42.5 43.4388C42.74 43.4388 42.98 43.3475 43.1625 43.1638C43.5288 42.7963 43.5288 42.2025 43.1625 41.8375ZM37.3962 40.1038C35.9025 40.1038 34.6875 38.8887 34.6875 37.395C34.6875 35.9012 35.9025 34.6862 37.3962 34.6862C38.8887 34.6862 40.1038 35.9012 40.1038 37.395C40.1038 38.8887 38.8887 40.1038 37.3962 40.1038Z" fill="white"/>
</svg>
