<svg width="60" height="60" viewBox="0 0 60 60" fill="none" xmlns="http://www.w3.org/2000/svg">
<rect width="60" height="60" rx="10" fill="#ED4122"/>
<path d="M37.2 33.3614C34.5492 33.3614 32.4 35.5193 32.4 38.1807C32.4 40.8422 34.5492 43 37.2 43C39.8508 43 42 40.8422 42 38.1807C42 35.5193 39.8508 33.3614 37.2 33.3614ZM39.1248 37.6024L37.1244 39.6109C37.0116 39.7241 36.8592 39.7868 36.6996 39.7868C36.54 39.7868 36.3876 39.7229 36.2748 39.6109L35.2752 38.6072C35.0412 38.3723 35.0412 37.9903 35.2752 37.7554C35.5092 37.5205 35.8896 37.5205 36.1236 37.7554L36.6984 38.3337L38.274 36.7518C38.508 36.5168 38.8885 36.5168 39.1225 36.7518C39.3565 36.9867 39.3588 37.3675 39.1248 37.6024ZM39.2399 27.0361H18.3601C18.1609 27.0361 18 27.1976 18 27.3976V36.9759C18 39.3855 19.2 40.5904 21.6 40.5904H30.552C30.804 40.5904 30.96 40.3495 30.888 40.1206C30.672 39.4098 30.576 38.6626 30.612 37.8675C30.7632 34.5313 33.5675 31.7169 36.8903 31.5663C37.6811 31.5301 38.4239 31.6277 39.1307 31.8434C39.3587 31.9157 39.5988 31.759 39.5988 31.506V27.3976C39.6 27.1976 39.4391 27.0361 39.2399 27.0361ZM24.024 36.9759C23.3616 36.9759 22.8179 36.4361 22.8179 35.7711C22.8179 35.106 23.3496 34.5663 24.012 34.5663H24.024C24.6876 34.5663 25.224 35.106 25.224 35.7711C25.224 36.4361 24.6864 36.9759 24.024 36.9759ZM24.024 32.1566C23.3616 32.1566 22.8179 31.6169 22.8179 30.9518C22.8179 30.2867 23.3496 29.747 24.012 29.747H24.024C24.6876 29.747 25.224 30.2867 25.224 30.9518C25.224 31.6169 24.6864 32.1566 24.024 32.1566ZM28.824 32.1566C28.1616 32.1566 27.6179 31.6169 27.6179 30.9518C27.6179 30.2867 28.1496 29.747 28.812 29.747H28.824C29.4876 29.747 30.024 30.2867 30.024 30.9518C30.024 31.6169 29.4864 32.1566 28.824 32.1566ZM39.6 24.3253V24.8674C39.6 25.0674 39.4391 25.2289 39.2399 25.2289H18.3601C18.1609 25.2289 18 25.0674 18 24.8674V24.3253C18 21.9157 19.2 20.7108 21.6 20.7108H23.1V18.9036C23.1 18.4096 23.508 18 24 18C24.492 18 24.9 18.4096 24.9 18.9036V20.7108H32.7V18.9036C32.7 18.4096 33.108 18 33.6 18C34.092 18 34.5 18.4096 34.5 18.9036V20.7108H36C38.4 20.7108 39.6 21.9157 39.6 24.3253Z" fill="white"/>
</svg>
