<svg width="60" height="60" viewBox="0 0 60 60" fill="none" xmlns="http://www.w3.org/2000/svg">
<rect width="60" height="60" rx="10" fill="#ED4122"/>
<path d="M30.3242 39.1205V41.0769H34.5405C35.0775 41.0769 35.5134 41.5077 35.5134 42.0385C35.5134 42.5692 35.0775 43 34.5405 43H24.1619C23.6249 43 23.189 42.5692 23.189 42.0385C23.189 41.5077 23.6249 41.0769 24.1619 41.0769H28.3782V39.0847C25.8627 38.8308 23.5121 37.8307 21.5908 36.1845L19.6616 38.091C19.2815 38.4667 18.6652 38.4667 18.2851 38.091C17.905 37.7154 17.905 37.1064 18.2851 36.7307L20.8797 34.1666C21.0626 33.9858 21.3092 33.8846 21.5673 33.8846H21.5699C21.8293 33.8846 22.0784 33.9885 22.2587 34.1705C24.232 36.1436 26.8564 37.2307 29.6496 37.2307C35.3863 37.2307 40.054 32.6243 40.054 26.9614C40.054 24.205 38.9527 21.6063 36.9549 19.6434C36.5735 19.2691 36.5707 18.6601 36.9495 18.2831C37.3296 17.9062 37.9485 17.9063 38.326 18.2794C40.6949 20.605 42 23.6896 42 26.9614C42 33.4602 36.8198 38.7718 30.3242 39.1205ZM29.3512 19.2819C25.0584 19.2819 21.5673 22.7319 21.5673 26.9743C21.5673 31.2166 25.0584 34.6666 29.3512 34.6666C33.644 34.6666 37.1351 31.2166 37.1351 26.9743C37.1351 22.7319 33.644 19.2819 29.3512 19.2819Z" fill="white"/>
</svg>
