<svg width="74" height="74" viewBox="0 0 74 74" fill="none" xmlns="http://www.w3.org/2000/svg">
<rect width="74" height="74" rx="12" fill="#ED4122"/>
<path d="M42.1064 31.4399C41.8944 30.1487 41.615 28.9636 41.2681 27.8844C40.9212 26.8053 40.5262 25.8803 40.0829 25.1094C39.6397 24.3386 39.1579 23.7316 38.6376 23.2883C38.1173 22.8644 37.5681 22.6524 36.99 22.6524C36.4118 22.6524 35.8626 22.8644 35.3423 23.2883C34.822 23.7316 34.3402 24.3386 33.897 25.1094C33.4538 25.8803 33.0587 26.8053 32.7118 27.8844C32.365 28.9636 32.0855 30.1487 31.8736 31.4399H42.1064ZM31.44 36.9899C31.44 37.6258 31.4496 38.2521 31.4689 38.8688C31.5074 39.4855 31.5652 40.0925 31.6423 40.6899H42.3376C42.3954 40.0925 42.4436 39.4855 42.4822 38.8688C42.5207 38.2521 42.54 37.6258 42.54 36.9899C42.54 36.354 42.5207 35.7277 42.4822 35.111C42.4436 34.4943 42.3954 33.8873 42.3376 33.2899H31.6423C31.5652 33.8873 31.517 34.4943 31.4978 35.111C31.4592 35.7277 31.44 36.354 31.44 36.9899ZM50.2001 31.4399C49.7954 30.4571 49.2848 29.5321 48.6681 28.6649C48.0514 27.817 47.3577 27.0461 46.5868 26.3524C45.7967 25.6394 44.9392 25.0227 44.0142 24.5024C43.0892 23.9821 42.1064 23.5678 41.0657 23.2594C41.7788 24.223 42.3762 25.4178 42.8579 26.8438C43.3397 28.2698 43.7059 29.8019 43.9564 31.4399H50.2001ZM32.8853 23.2594C31.8639 23.5678 30.8907 23.9821 29.9657 24.5024C29.0407 25.0227 28.1928 25.6297 27.422 26.3235C26.6319 27.0365 25.9285 27.817 25.3118 28.6649C24.6952 29.5321 24.1845 30.4571 23.7798 31.4399H30.0236C30.2741 29.8019 30.6402 28.2795 31.122 26.8727C31.6038 25.4467 32.1915 24.2422 32.8853 23.2594ZM50.8361 33.2899H44.1876C44.2647 33.8873 44.3129 34.4943 44.3322 35.111C44.3707 35.7469 44.39 36.3732 44.39 36.9899C44.39 37.6066 44.3803 38.2232 44.3611 38.8399C44.3225 39.4566 44.2647 40.0732 44.1876 40.6899H50.8361C50.9902 40.0925 51.1059 39.4855 51.1829 38.8688C51.2793 38.2521 51.3275 37.6258 51.3275 36.9899C51.3275 36.354 51.2889 35.7277 51.2118 35.111C51.1155 34.4943 50.9902 33.8873 50.8361 33.2899ZM29.59 36.9899C29.59 36.3732 29.5996 35.7566 29.6189 35.1399C29.6574 34.5232 29.7152 33.9066 29.7923 33.2899H23.1439C22.9897 33.8873 22.8741 34.4943 22.797 35.111C22.7006 35.7277 22.6525 36.354 22.6525 36.9899C22.6525 37.6258 22.691 38.2521 22.7681 38.8688C22.8644 39.4855 22.9897 40.0925 23.1439 40.6899H29.7634C29.7056 40.0925 29.667 39.4855 29.6478 38.8688C29.6092 38.2329 29.59 37.6066 29.59 36.9899ZM31.8736 42.5399C32.0855 43.831 32.365 45.0162 32.7118 46.0954C33.0587 47.1745 33.4538 48.0995 33.897 48.8704C34.3402 49.6412 34.822 50.2482 35.3423 50.6915C35.8626 51.1154 36.4118 51.3274 36.99 51.3274C37.5681 51.3274 38.1173 51.1154 38.6376 50.6915C39.1579 50.2482 39.6397 49.6412 40.0829 48.8704C40.5262 48.0995 40.9212 47.1745 41.2681 46.0954C41.615 45.0162 41.8944 43.831 42.1064 42.5399H31.8736ZM41.0947 50.7204C42.116 50.412 43.0892 49.9977 44.0142 49.4774C44.9392 48.9571 45.7871 48.35 46.5579 47.6563C47.348 46.9433 48.0514 46.1628 48.6681 45.3149C49.2848 44.4477 49.8051 43.5227 50.229 42.5399H43.9853C43.7155 44.1779 43.3397 45.7099 42.8579 47.136C42.3762 48.562 41.7884 49.7568 41.0947 50.7204ZM23.7798 42.5399C24.1845 43.5227 24.6952 44.4477 25.3118 45.3149C25.9285 46.1628 26.6223 46.9336 27.3931 47.6274C28.1832 48.3404 29.0407 48.9571 29.9657 49.4774C30.8907 49.9977 31.8736 50.412 32.9142 50.7204C32.2012 49.7568 31.6038 48.562 31.122 47.136C30.6402 45.7099 30.2741 44.1779 30.0236 42.5399H23.7798Z" fill="white"/>
</svg>
