<svg width="74" height="74" viewBox="0 0 74 74" fill="none" xmlns="http://www.w3.org/2000/svg">
<rect width="74" height="74" rx="12" fill="#ED4122"/>
<path d="M42.5161 40.7189L36.995 46.24L31.4739 40.7189C30.4525 40.7768 29.489 41.008 28.5833 41.4127C27.6775 41.8367 26.8874 42.3955 26.213 43.0893C25.5385 43.783 25.0085 44.5924 24.6231 45.5174C24.2377 46.4424 24.045 47.4252 24.045 48.4658V49.015C24.045 49.7859 24.3148 50.4411 24.8544 50.9807C25.3939 51.5202 26.0491 51.79 26.82 51.79H47.17C47.9408 51.79 48.596 51.5202 49.1356 50.9807C49.6752 50.4411 49.945 49.7859 49.945 49.015V48.4658C49.945 47.4252 49.7523 46.4424 49.3669 45.5174C48.9814 44.5924 48.4515 43.783 47.777 43.0893C47.1025 42.3955 46.3124 41.8367 45.4067 41.4127C44.501 41.008 43.5374 40.7768 42.5161 40.7189ZM24.8255 26.815L25.2012 26.9018V30.2549C25.0085 30.3898 24.8447 30.5536 24.7098 30.7463C24.5749 30.9583 24.5075 31.1895 24.5075 31.44C24.5075 31.6906 24.5653 31.9122 24.6809 32.1049C24.7965 32.2976 24.9507 32.4518 25.1434 32.5674L24.2473 36.1807C24.1895 36.3734 24.2088 36.5564 24.3051 36.7299C24.4015 36.9033 24.5268 36.99 24.6809 36.99H27.109C27.2632 36.99 27.3885 36.9033 27.4848 36.7299C27.5812 36.5564 27.6005 36.3734 27.5426 36.1807L26.6465 32.5674C26.8393 32.4518 26.9934 32.2976 27.109 32.1049C27.2247 31.9122 27.2825 31.6906 27.2825 31.44C27.2825 31.1895 27.2247 30.9679 27.109 30.7752C26.9741 30.5632 26.8007 30.3898 26.5887 30.2549V27.2197L30.4044 28.1447C30.1538 28.6458 29.9611 29.1661 29.8262 29.7057C29.6721 30.2645 29.595 30.8426 29.595 31.44C29.595 32.4614 29.7877 33.4249 30.1731 34.3307C30.5585 35.2171 31.0885 35.9976 31.763 36.6721C32.4374 37.3465 33.2179 37.8765 34.1044 38.2619C35.0101 38.6473 35.9736 38.84 36.995 38.84C38.0163 38.84 38.9799 38.6473 39.8856 38.2619C40.7721 37.8765 41.5525 37.3465 42.227 36.6721C42.9015 35.9976 43.4314 35.2171 43.8169 34.3307C44.2023 33.4249 44.395 32.4614 44.395 31.44C44.395 30.8426 44.3275 30.2742 44.1926 29.7346C44.0385 29.1757 43.8361 28.6458 43.5856 28.1447L49.1645 26.815C49.6848 26.6801 49.945 26.3718 49.945 25.89C49.945 25.4083 49.6848 25.1096 49.1645 24.9939L38.1512 22.3346C37.7658 22.2382 37.3804 22.19 36.995 22.19C36.6096 22.19 36.2241 22.2382 35.8387 22.3346L24.8255 24.965C24.3051 25.0999 24.045 25.4083 24.045 25.89C24.045 26.3718 24.3051 26.6801 24.8255 26.815Z" fill="white"/>
</svg>
