<svg width="40" height="34" viewBox="0 0 40 34" fill="none" xmlns="http://www.w3.org/2000/svg">
<path d="M18.1395 30.3243H6.97674C2.47814 30.3243 0 27.8763 0 23.4324V6.89189C0 2.448 2.47814 0 6.97674 0H29.3023C33.8009 0 36.2791 2.448 36.2791 6.89189V12.4054C36.2791 13.1663 35.654 13.7838 34.8837 13.7838C34.1135 13.7838 33.4884 13.1663 33.4884 12.4054V6.89189C33.4884 3.99362 32.2363 2.75676 29.3023 2.75676H6.97674C4.04279 2.75676 2.7907 3.99362 2.7907 6.89189V23.4324C2.7907 26.3307 4.04279 27.5676 6.97674 27.5676H18.1395C18.9098 27.5676 19.5349 28.1851 19.5349 28.9459C19.5349 29.7068 18.9098 30.3243 18.1395 30.3243ZM20.0541 16.4101L29.1924 9.84529C29.8157 9.39869 29.9534 8.53493 29.4995 7.91925C29.0474 7.30542 28.1769 7.16572 27.55 7.61599L18.4112 14.1808C18.2474 14.2984 18.0298 14.2984 17.8661 14.1808L8.72729 7.61599C8.09845 7.16572 7.22989 7.30725 6.7778 7.91925C6.32384 8.53493 6.46159 9.39685 7.08485 9.84529L16.2232 16.4119C16.7962 16.8236 17.468 17.0276 18.1377 17.0276C18.8075 17.0276 19.4829 16.8217 20.0541 16.4101ZM40 25.2703C40 20.457 36.0354 16.5405 31.1628 16.5405C26.2902 16.5405 22.3256 20.457 22.3256 25.2703C22.3256 30.0836 26.2902 34 31.1628 34C36.0354 34 40 30.0836 40 25.2703ZM37.2093 25.2703C37.2093 28.5637 34.4967 31.2432 31.1628 31.2432C27.8288 31.2432 25.1163 28.5637 25.1163 25.2703C25.1163 21.9769 27.8288 19.2973 31.1628 19.2973C34.4967 19.2973 37.2093 21.9769 37.2093 25.2703ZM31.3731 27.7771L34.4745 24.7134C35.0196 24.1749 35.0196 23.3019 34.4745 22.7635C33.9294 22.225 33.0456 22.225 32.5005 22.7635L30.3852 24.8512L29.8215 24.2944C29.2764 23.7559 28.3926 23.7559 27.8475 24.2944C27.3024 24.8329 27.3024 25.7058 27.8475 26.2443L29.3973 27.7753C29.6596 28.0344 30.0131 28.1796 30.3834 28.1796C30.7573 28.1796 31.1126 28.0344 31.3731 27.7771Z" fill="#032746"/>
</svg>
