<svg width="80" height="80" viewBox="0 0 80 80" fill="none" xmlns="http://www.w3.org/2000/svg">
<path d="M0 16C0 7.16344 7.16344 0 16 0H64C72.8366 0 80 7.16344 80 16V64C80 72.8366 72.8366 80 64 80H16C7.16344 80 0 72.8366 0 64V16Z" fill="url(#paint0_linear_34_4148)"/>
<path d="M31.6667 38.3336V31.6669C31.6646 29.6003 32.4305 27.6067 33.8156 26.073C35.2008 24.5394 37.1064 23.5751 39.1625 23.3674C41.2186 23.1597 43.2786 23.7234 44.9425 24.9491C46.6063 26.1748 47.7554 27.975 48.1667 30.0003M28.3333 38.3336H51.6667C53.5076 38.3336 55 39.826 55 41.6669V53.3336C55 55.1745 53.5076 56.6669 51.6667 56.6669H28.3333C26.4924 56.6669 25 55.1745 25 53.3336V41.6669C25 39.826 26.4924 38.3336 28.3333 38.3336Z" stroke="white" stroke-width="3.33333" stroke-linecap="round" stroke-linejoin="round"/>
<defs>
<linearGradient id="paint0_linear_34_4148" x1="0" y1="51.2" x2="80" y2="51.2" gradientUnits="userSpaceOnUse">
<stop stop-color="#ED4122"/>
<stop offset="1" stop-color="#DC2626"/>
</linearGradient>
</defs>
</svg>
