<svg width="80" height="80" viewBox="0 0 80 80" fill="none" xmlns="http://www.w3.org/2000/svg">
<path d="M0 16C0 7.16344 7.16344 0 16 0H64C72.8366 0 80 7.16344 80 16V64C80 72.8366 72.8366 80 64 80H16C7.16344 80 0 72.8366 0 64V16Z" fill="url(#paint0_linear_33_4113)"/>
<path d="M35.0001 40.0004L38.3334 43.3338L45.0001 36.6671M53.3334 41.6671C53.3334 50.0004 47.5001 54.1671 40.5667 56.5838C40.2037 56.7068 39.8093 56.7009 39.4501 56.5671C32.5001 54.1671 26.6667 50.0004 26.6667 41.6671V30.0004C26.6667 29.5584 26.8423 29.1345 27.1549 28.8219C27.4675 28.5094 27.8914 28.3338 28.3334 28.3338C31.6667 28.3338 35.8334 26.3338 38.7334 23.8004C39.0865 23.4988 39.5357 23.333 40.0001 23.333C40.4645 23.333 40.9137 23.4988 41.2667 23.8004C44.1834 26.3504 48.3334 28.3338 51.6667 28.3338C52.1088 28.3338 52.5327 28.5094 52.8453 28.8219C53.1578 29.1345 53.3334 29.5584 53.3334 30.0004V41.6671Z" stroke="white" stroke-width="3.33333" stroke-linecap="round" stroke-linejoin="round"/>
<defs>
<linearGradient id="paint0_linear_33_4113" x1="0" y1="51.2" x2="80" y2="51.2" gradientUnits="userSpaceOnUse">
<stop stop-color="#ED4122"/>
<stop offset="1" stop-color="#DC2626"/>
</linearGradient>
</defs>
</svg>
