<svg width="80" height="80" viewBox="0 0 80 80" fill="none" xmlns="http://www.w3.org/2000/svg">
<path d="M0 16C0 7.16344 7.16344 0 16 0H64C72.8366 0 80 7.16344 80 16V64C80 72.8366 72.8366 80 64 80H16C7.16344 80 0 72.8366 0 64V16Z" fill="url(#paint0_linear_34_4248)"/>
<path d="M56.6663 41.667V30.0003C56.6663 29.1163 56.3152 28.2684 55.69 27.6433C55.0649 27.0182 54.2171 26.667 53.333 26.667H26.6663C25.7823 26.667 24.9344 27.0182 24.3093 27.6433C23.6842 28.2684 23.333 29.1163 23.333 30.0003V50.0003C23.333 51.8337 24.833 53.3337 26.6663 53.3337H39.9997M56.6663 31.667L41.7163 41.167C41.2018 41.4894 40.6069 41.6603 39.9997 41.6603C39.3925 41.6603 38.7976 41.4894 38.283 41.167L23.333 31.667M46.6663 51.667L49.9997 55.0003L56.6663 48.3337" stroke="white" stroke-width="3.33333" stroke-linecap="round" stroke-linejoin="round"/>
<defs>
<linearGradient id="paint0_linear_34_4248" x1="0" y1="51.2" x2="80" y2="51.2" gradientUnits="userSpaceOnUse">
<stop stop-color="#ED4122"/>
<stop offset="1" stop-color="#DC2626"/>
</linearGradient>
</defs>
</svg>
