<svg width="40" height="50" viewBox="0 0 40 50" fill="none" xmlns="http://www.w3.org/2000/svg">
<path d="M32.2581 15.523V12.1795C32.2581 5.4641 26.7587 0 20 0C13.2413 0 7.74194 5.4641 7.74194 12.1795V15.523C2.74065 16.1819 0 19.4769 0 25V40.3846C0 46.5846 3.43742 50 9.67742 50H30.3226C36.5626 50 40 46.5846 40 40.3846V25C40 19.4795 37.2594 16.1845 32.2581 15.523ZM20 3.84615C24.6245 3.84615 28.3871 7.58462 28.3871 12.1795V15.3846H11.6129V12.1795C11.6129 7.58462 15.3755 3.84615 20 3.84615ZM36.129 40.3846C36.129 44.4282 34.3923 46.1538 30.3226 46.1538H9.67742C5.60774 46.1538 3.87097 44.4282 3.87097 40.3846V25C3.87097 20.9564 5.60774 19.2308 9.67742 19.2308H30.3226C34.3923 19.2308 36.129 20.9564 36.129 25V40.3846ZM23.2775 30.1282C23.2775 31.1846 22.7303 32.0771 21.9355 32.6591V37.8205C21.9355 38.8821 21.0684 39.7436 20 39.7436C18.9316 39.7436 18.0645 38.8821 18.0645 37.8205V32.5947C17.3213 32.0075 16.8126 31.141 16.8126 30.1282C16.8126 28.359 18.2452 26.9231 20.0258 26.9231H20.0517C21.8323 26.9231 23.2775 28.359 23.2775 30.1282Z" fill="#032746"/>
</svg>
