<svg width="80" height="80" viewBox="0 0 80 80" fill="none" xmlns="http://www.w3.org/2000/svg">
<path d="M0 16C0 7.16344 7.16344 0 16 0H64C72.8366 0 80 7.16344 80 16V64C80 72.8366 72.8366 80 64 80H16C7.16344 80 0 72.8366 0 64V16Z" fill="url(#paint0_linear_34_4307)"/>
<path d="M56.6664 38.4671V40.0004C56.6643 43.5945 55.5005 47.0915 53.3486 49.9701C51.1966 52.8487 48.1718 54.9546 44.7253 55.9736C41.2787 56.9926 37.5951 56.8703 34.2238 55.6247C30.8525 54.3792 27.9741 52.0773 26.0179 49.0622C24.0618 46.0471 23.1327 42.4805 23.3691 38.8943C23.6056 35.308 24.995 31.8943 27.3301 29.1622C29.6653 26.4301 32.821 24.5261 36.3267 23.734C39.8323 22.9419 43.5001 23.3043 46.783 24.7671M34.9997 38.3338L39.9997 43.3338L56.6664 26.6671" stroke="white" stroke-width="3.33333" stroke-linecap="round" stroke-linejoin="round"/>
<defs>
<linearGradient id="paint0_linear_34_4307" x1="0" y1="51.2" x2="80" y2="51.2" gradientUnits="userSpaceOnUse">
<stop stop-color="#ED4122"/>
<stop offset="1" stop-color="#DC2626"/>
</linearGradient>
</defs>
</svg>
