<svg width="60" height="60" viewBox="0 0 60 60" fill="none" xmlns="http://www.w3.org/2000/svg">
<rect width="60" height="60" rx="10" fill="#ED4122"/>
<path d="M41.3734 32.1468C41.3734 32.1468 42 33.0532 42 34.5199C42 36.9865 40.1599 39.0133 37.7733 39.3066C37.2133 40.9866 35.9867 42 34 42C32.6667 42 31 40.9735 31 39.1602V36.6667C31 34.68 33.0666 33.5866 33.12 33.5599C33.6133 33.3066 33.8134 32.7065 33.5601 32.2132C33.3201 31.7199 32.7201 31.5201 32.2267 31.7734C32.1601 31.8001 31.6267 32.0799 31 32.6133V30C31 28.0133 33.0666 26.9199 33.12 26.8932C33.6133 26.6399 33.8134 26.0399 33.5601 25.5465C33.3201 25.0532 32.7201 24.8534 32.2267 25.1068C32.1601 25.1334 31.6267 25.4133 31 25.9466V20.1068C31 18.4801 32.0667 18 32.6667 18C35.64 18 36.52 20.9733 36.52 20.9733C36.52 20.9733 39.3333 22.0001 39.3333 25.0934C39.3333 25.4668 39.2934 25.8268 39.2 26.1602C40.8267 26.6668 42 28.2 42 30.0133C42 30.8133 41.3734 32.1468 41.3734 32.1468ZM27.7733 25.1068C27.8399 25.1334 28.3733 25.4133 29 25.9466V20.1068C29 18.4801 27.9333 18 27.3333 18C24.36 18 23.48 20.9733 23.48 20.9733C23.48 20.9733 20.6667 22.0001 20.6667 25.0934C20.6667 25.4668 20.7066 25.8268 20.8 26.1602C19.1733 26.6668 18 28.2 18 30.0133C18 30.8133 18.6266 32.1468 18.6266 32.1468C18.6266 32.1468 18 33.0532 18 34.5199C18 36.9865 19.8401 39.0133 22.2267 39.3066C22.7867 40.9866 24.0133 42 26 42C27.3333 42 29 40.9735 29 39.1602V36.6667C29 34.6667 26.9067 33.5732 26.88 33.5599C26.3867 33.3066 26.1999 32.7065 26.4399 32.2132C26.6933 31.7199 27.2933 31.5201 27.7733 31.7734C27.8399 31.8001 28.3733 32.0799 29 32.6133V30C29 28 26.9067 26.9066 26.88 26.8932C26.3867 26.6399 26.1999 26.0399 26.4399 25.5465C26.6933 25.0532 27.2933 24.8534 27.7733 25.1068Z" fill="white"/>
</svg>
