<svg width="64" height="64" viewBox="0 0 64 64" fill="none" xmlns="http://www.w3.org/2000/svg">
<path d="M0 16C0 7.16344 7.16344 0 16 0H48C56.8366 0 64 7.16344 64 16V48C64 56.8366 56.8366 64 48 64H16C7.16344 64 0 56.8366 0 48V16Z" fill="#6CA6C1"/>
<path d="M33.48 26.2187L35.8533 29.7813M34.8827 33.0507L30.4507 34.9493M42.6667 21.3333L34.5867 23.3533M20 20V41.3333C20 42.0406 20.281 42.7189 20.781 43.219C21.2811 43.719 21.9594 44 22.6667 44H44M34.6667 24C34.6667 25.4728 33.4728 26.6667 32 26.6667C30.5272 26.6667 29.3333 25.4728 29.3333 24C29.3333 22.5272 30.5272 21.3333 32 21.3333C33.4728 21.3333 34.6667 22.5272 34.6667 24ZM40 32C40 33.4728 38.8061 34.6667 37.3333 34.6667C35.8606 34.6667 34.6667 33.4728 34.6667 32C34.6667 30.5272 35.8606 29.3333 37.3333 29.3333C38.8061 29.3333 40 30.5272 40 32ZM30.6667 36C30.6667 37.4728 29.4728 38.6667 28 38.6667C26.5272 38.6667 25.3333 37.4728 25.3333 36C25.3333 34.5272 26.5272 33.3333 28 33.3333C29.4728 33.3333 30.6667 34.5272 30.6667 36Z" stroke="white" stroke-width="2.66667" stroke-linecap="round" stroke-linejoin="round"/>
</svg>
