<svg width="64" height="64" viewBox="0 0 64 64" fill="none" xmlns="http://www.w3.org/2000/svg">
<path d="M0 16C0 7.16344 7.16344 0 16 0H48C56.8366 0 64 7.16344 64 16V48C64 56.8366 56.8366 64 48 64H16C7.16344 64 0 56.8366 0 48V16Z" fill="#D97706"/>
<path d="M36 34.6667C36.2667 33.3334 36.9333 32.4001 38 31.3334C39.3333 30.1334 40 28.4001 40 26.6667C40 24.545 39.1571 22.5102 37.6569 21.0099C36.1566 19.5096 34.1217 18.6667 32 18.6667C29.8783 18.6667 27.8434 19.5096 26.3431 21.0099C24.8429 22.5102 24 24.545 24 26.6667C24 28.0001 24.2667 29.6001 26 31.3334C26.9333 32.2667 27.7333 33.3334 28 34.6667M28 40.0001H36M29.3333 45.3334H34.6667" stroke="white" stroke-width="2.66667" stroke-linecap="round" stroke-linejoin="round"/>
</svg>
