<svg width="64" height="64" viewBox="0 0 64 64" fill="none" xmlns="http://www.w3.org/2000/svg">
<path d="M0 16C0 7.16344 7.16344 0 16 0H48C56.8366 0 64 7.16344 64 16V48C64 56.8366 56.8366 64 48 64H16C7.16344 64 0 56.8366 0 48V16Z" fill="#032746"/>
<path d="M26.6667 18.6667V24.0001M37.3333 18.6667V24.0001M20 29.3334H44M28 37.3334L30.6667 40.0001L36 34.6667M22.6667 21.3334H41.3333C42.8061 21.3334 44 22.5273 44 24.0001V42.6667C44 44.1395 42.8061 45.3334 41.3333 45.3334H22.6667C21.1939 45.3334 20 44.1395 20 42.6667V24.0001C20 22.5273 21.1939 21.3334 22.6667 21.3334Z" stroke="white" stroke-width="2.66667" stroke-linecap="round" stroke-linejoin="round"/>
</svg>
