<svg width="64" height="64" viewBox="0 0 64 64" fill="none" xmlns="http://www.w3.org/2000/svg">
<path d="M0 16C0 7.16344 7.16344 0 16 0H48C56.8366 0 64 7.16344 64 16V48C64 56.8366 56.8366 64 48 64H16C7.16344 64 0 56.8366 0 48V16Z" fill="#059669"/>
<path d="M29.3335 18.6667V28.7027C29.3339 29.1174 29.2376 29.5265 29.0522 29.8974L22.2935 43.4001C22.1907 43.6041 22.1421 43.831 22.1522 44.0592C22.1623 44.2874 22.2309 44.5092 22.3514 44.7033C22.4718 44.8973 22.6401 45.0572 22.8401 45.1676C23.0401 45.2779 23.2651 45.335 23.4935 45.3334H40.5069C40.7353 45.335 40.9603 45.2779 41.1603 45.1676C41.3603 45.0572 41.5286 44.8973 41.649 44.7033C41.7695 44.5092 41.8381 44.2874 41.8482 44.0592C41.8583 43.831 41.8097 43.6041 41.7069 43.4001L34.9482 29.8974C34.7628 29.5265 34.6665 29.1174 34.6669 28.7027V18.6667M27.3335 18.6667H36.6669M25.3335 37.3334H38.6669" stroke="white" stroke-width="2.66667" stroke-linecap="round" stroke-linejoin="round"/>
</svg>
