<svg width="64" height="64" viewBox="0 0 64 64" fill="none" xmlns="http://www.w3.org/2000/svg">
<path d="M0 16C0 7.16344 7.16344 0 16 0H48C56.8366 0 64 7.16344 64 16V48C64 56.8366 56.8366 64 48 64H16C7.16344 64 0 56.8366 0 48V16Z" fill="#ED4122"/>
<path d="M31.9998 45.3334C39.3636 45.3334 45.3332 39.3639 45.3332 32.0001C45.3332 24.6363 39.3636 18.6667 31.9998 18.6667C24.636 18.6667 18.6665 24.6363 18.6665 32.0001C18.6665 39.3639 24.636 45.3334 31.9998 45.3334Z" stroke="white" stroke-width="2.66667" stroke-linecap="round" stroke-linejoin="round"/>
<path d="M31.9998 40.0001C36.4181 40.0001 39.9998 36.4184 39.9998 32.0001C39.9998 27.5818 36.4181 24.0001 31.9998 24.0001C27.5816 24.0001 23.9998 27.5818 23.9998 32.0001C23.9998 36.4184 27.5816 40.0001 31.9998 40.0001Z" stroke="white" stroke-width="2.66667" stroke-linecap="round" stroke-linejoin="round"/>
<path d="M31.9998 34.6667C33.4726 34.6667 34.6665 33.4728 34.6665 32.0001C34.6665 30.5273 33.4726 29.3334 31.9998 29.3334C30.5271 29.3334 29.3332 30.5273 29.3332 32.0001C29.3332 33.4728 30.5271 34.6667 31.9998 34.6667Z" stroke="white" stroke-width="2.66667" stroke-linecap="round" stroke-linejoin="round"/>
</svg>
