<svg width="80" height="80" viewBox="0 0 80 80" fill="none" xmlns="http://www.w3.org/2000/svg">
<path d="M0 16C0 7.16344 7.16344 0 16 0H64C72.8366 0 80 7.16344 80 16V64C80 72.8366 72.8366 80 64 80H16C7.16344 80 0 72.8366 0 64V16Z" fill="#FEE2E2"/>
<path d="M46.6668 55V51.6667C46.6668 49.8986 45.9645 48.2029 44.7142 46.9526C43.464 45.7024 41.7683 45 40.0002 45H30.0002C28.2321 45 26.5364 45.7024 25.2861 46.9526C24.0359 48.2029 23.3335 49.8986 23.3335 51.6667V55" stroke="#ED4122" stroke-width="3.33333" stroke-linecap="round" stroke-linejoin="round"/>
<path d="M35.0002 38.3333C38.6821 38.3333 41.6668 35.3486 41.6668 31.6667C41.6668 27.9848 38.6821 25 35.0002 25C31.3183 25 28.3335 27.9848 28.3335 31.6667C28.3335 35.3486 31.3183 38.3333 35.0002 38.3333Z" stroke="#ED4122" stroke-width="3.33333" stroke-linecap="round" stroke-linejoin="round"/>
<path d="M56.6665 55.0001V51.6668C56.6654 50.1897 56.1738 48.7548 55.2688 47.5873C54.3638 46.4199 53.0967 45.5861 51.6665 45.2168" stroke="#ED4122" stroke-width="3.33333" stroke-linecap="round" stroke-linejoin="round"/>
<path d="M46.6665 25.2168C48.1005 25.584 49.3716 26.418 50.2792 27.5873C51.1869 28.7567 51.6796 30.1948 51.6796 31.6751C51.6796 33.1554 51.1869 34.5936 50.2792 35.7629C49.3716 36.9323 48.1005 37.7663 46.6665 38.1335" stroke="#ED4122" stroke-width="3.33333" stroke-linecap="round" stroke-linejoin="round"/>
</svg>
