<svg width="60" height="60" viewBox="0 0 60 60" fill="none" xmlns="http://www.w3.org/2000/svg">
<rect width="60" height="60" rx="10" fill="#ED4122"/>
<path d="M42 28.8121V39.6229C42 39.9946 41.7107 40.2973 41.3441 40.2986C38.3667 40.3121 32.4693 40.4973 30 43C27.5307 40.4973 21.6333 40.3121 18.6559 40.2986C18.2893 40.2973 18 39.9946 18 39.6229V28.8121C18 28.4378 18.3 28.1351 18.668 28.1351C21.1893 28.1405 23.7121 28.2054 26.2334 29.0081C28.4681 29.7189 30 31.8081 30 34.1811C30 31.8068 31.5319 29.7189 33.7666 29.0081C36.2879 28.2054 38.8094 28.1405 41.332 28.1351C41.7 28.1338 42 28.4378 42 28.8121ZM30 26.1081C32.2053 26.1081 34 24.2892 34 22.0541C34 19.8189 32.2053 18 30 18C27.7947 18 26 19.8189 26 22.0541C26 24.2892 27.7947 26.1081 30 26.1081Z" fill="white"/>
</svg>
