<svg width="40" height="40" viewBox="0 0 40 40" fill="none" xmlns="http://www.w3.org/2000/svg">
<path d="M35 8.86653V30.5499C35 31.0999 34.4668 31.4834 33.9168 31.3334C29.9435 30.2017 25.955 30.1966 21.9784 32.1799C21.6434 32.3466 21.2484 32.1199 21.2484 31.7449V9.755C21.2484 9.64333 21.2835 9.53169 21.3485 9.44168C22.3868 8.01669 23.9934 7.02492 25.8651 6.79825C28.8851 6.43159 31.7885 6.79839 34.5235 8.10339C34.8152 8.24172 35 8.54486 35 8.86653ZM14.1333 6.79988C11.1133 6.43321 8.20985 6.80002 5.47485 8.10502C5.18485 8.24335 5 8.54669 5 8.86836V30.5517C5 31.1017 5.53317 31.485 6.08317 31.335C10.0565 30.2033 14.045 30.1982 18.0216 32.1816C18.3566 32.3482 18.7516 32.1216 18.7516 31.7466V9.75663C18.7516 9.64496 18.7165 9.53331 18.6515 9.44331C17.6115 8.01831 16.0066 7.02655 14.1333 6.79988Z" fill="white"/>
</svg>
