<svg width="40" height="40" viewBox="0 0 40 40" fill="none" xmlns="http://www.w3.org/2000/svg">
<circle cx="20" cy="20" r="20" fill="white"/>
<path d="M9.00032 19.0638C9.00032 23.3289 9.61081 26.3773 12.0555 30.0333C13.9131 32.5042 16.395 33.1229 19.0404 31.3918C19.6262 31.0233 20.3742 31.0233 20.9613 31.3918C23.6054 33.1243 26.0872 32.5042 27.9448 30.0333C30.3895 26.3759 31 23.3289 31 19.0651C31 15.4063 28.2638 11.7502 24.8896 11.7502C23.1475 11.7502 21.5759 12.7031 20.4622 13.7302C20.3357 13.845 20.171 13.9086 20.0002 13.9086C19.8293 13.9086 19.6647 13.845 19.5382 13.7302C18.4258 12.7045 16.8528 11.7502 15.1107 11.7502C11.7365 11.7502 9.00032 15.4077 9.00032 19.0638Z" stroke="#F0BDA2" stroke-width="2.66667" stroke-linecap="round" stroke-linejoin="round"/>
<path d="M13.1253 20.0001C13.1253 17.9788 13.7495 16.7826 15.1877 15.8751M20.0002 13.1252C20.0002 11.4752 21.1923 7.62524 24.1251 7.62524" stroke="#F0BDA2" stroke-width="2.66667" stroke-linecap="round" stroke-linejoin="round"/>
</svg>
