<svg width="56" height="56" viewBox="0 0 56 56" fill="none" xmlns="http://www.w3.org/2000/svg">
<path d="M0 16C0 7.16344 7.16344 0 16 0H40C48.8366 0 56 7.16344 56 16V40C56 48.8366 48.8366 56 40 56H16C7.16344 56 0 48.8366 0 40V16Z" fill="#ED4122"/>
<path d="M28 39.6666C34.4433 39.6666 39.6666 34.4432 39.6666 27.9999C39.6666 21.5566 34.4433 16.3333 28 16.3333C21.5567 16.3333 16.3333 21.5566 16.3333 27.9999C16.3333 34.4432 21.5567 39.6666 28 39.6666Z" stroke="white" stroke-width="2.33333" stroke-linecap="round" stroke-linejoin="round"/>
<path d="M28 35C31.866 35 35 31.866 35 28C35 24.134 31.866 21 28 21C24.134 21 21 24.134 21 28C21 31.866 24.134 35 28 35Z" stroke="white" stroke-width="2.33333" stroke-linecap="round" stroke-linejoin="round"/>
<path d="M28 30.3334C29.2887 30.3334 30.3334 29.2887 30.3334 28.0001C30.3334 26.7114 29.2887 25.6667 28 25.6667C26.7114 25.6667 25.6667 26.7114 25.6667 28.0001C25.6667 29.2887 26.7114 30.3334 28 30.3334Z" stroke="white" stroke-width="2.33333" stroke-linecap="round" stroke-linejoin="round"/>
</svg>
