<svg width="48" height="48" viewBox="0 0 48 48" fill="none" xmlns="http://www.w3.org/2000/svg">
<path d="M0 14C0 6.26801 6.26801 0 14 0H34C41.732 0 48 6.26801 48 14V34C48 41.732 41.732 48 34 48H14C6.26801 48 0 41.732 0 34V14Z" fill="#ED4122"/>
<path d="M24 19C24 17.9391 23.5786 16.9217 22.8284 16.1716C22.0783 15.4214 21.0609 15 20 15H14V30H21C21.7956 30 22.5587 30.3161 23.1213 30.8787C23.6839 31.4413 24 32.2044 24 33M24 19V33M24 19C24 17.9391 24.4214 16.9217 25.1716 16.1716C25.9217 15.4214 26.9391 15 28 15H34V30H27C26.2044 30 25.4413 30.3161 24.8787 30.8787C24.3161 31.4413 24 32.2044 24 33M18 20H20M18 24H20M28 20H30M28 24H30" stroke="white" stroke-width="2" stroke-linecap="round" stroke-linejoin="round"/>
</svg>
