<svg width="40" height="40" viewBox="0 0 40 40" fill="none" xmlns="http://www.w3.org/2000/svg">
<circle cx="20" cy="20" r="20" fill="white"/>
<path d="M30.6787 11.8582C30.5943 11.7911 30.4934 11.748 30.3866 11.7334C30.2798 11.7188 30.171 11.7332 30.0717 11.7752L20.4117 15.9582C19.9917 16.1412 19.4657 16.2282 18.9257 16.2282C18.1727 16.2312 17.3937 16.0562 16.8507 15.8182C16.6852 15.7487 16.5276 15.6615 16.3807 15.5582C16.4214 15.5382 16.4697 15.5169 16.5257 15.4942L25.3117 11.6902L26.6217 12.2502V10.6132C26.6233 10.4965 26.5987 10.381 26.5498 10.275C26.5008 10.1691 26.4287 10.0755 26.3387 10.0012C26.255 9.9335 26.1544 9.88997 26.0478 9.87534C25.9412 9.86071 25.8325 9.87554 25.7337 9.91821L16.0737 14.1012C15.7757 14.2212 15.5197 14.3692 15.3037 14.5842C15.0539 14.8312 14.9119 15.1669 14.9087 15.5182C14.9087 15.5282 14.9117 15.5452 14.9117 15.5452V30.2752L14.9097 30.2952L14.9127 30.3052V30.3212H14.9147C14.9347 30.8362 15.1947 31.1642 15.4427 31.3962C16.2227 32.0842 17.5327 32.4692 18.9267 32.4892C19.5867 32.4892 20.2567 32.3892 20.8767 32.1232L30.5397 27.9392C30.7947 27.8292 30.9617 27.5562 30.9617 27.2472V12.4702C30.9633 12.3535 30.9387 12.238 30.8898 12.132C30.8408 12.0261 30.7687 11.9325 30.6787 11.8582ZM24.5517 9.05821C24.5347 8.83821 24.4437 8.62821 24.2817 8.50221C24.1973 8.43511 24.0964 8.392 23.9896 8.37739C23.8828 8.36279 23.774 8.37723 23.6747 8.41921L14.0147 12.6002C13.5947 12.7822 13.0677 12.8702 12.5287 12.8702C11.7757 12.8722 10.9967 12.6972 10.4537 12.4582C10.2883 12.3893 10.1307 12.3028 9.98372 12.2002C10.0244 12.1802 10.0727 12.1589 10.1287 12.1362L18.9157 8.33221L20.2257 8.89221V7.25721C20.2272 7.14044 20.2025 7.02483 20.1533 6.91891C20.1042 6.81299 20.0318 6.71945 19.9417 6.64521C19.8574 6.5783 19.7567 6.53529 19.6501 6.52069C19.5435 6.50608 19.4349 6.52042 19.3357 6.56221L9.67572 10.7462C9.37772 10.8662 9.12272 11.0132 8.90572 11.2292C8.65624 11.4763 8.5146 11.8121 8.51172 12.1632C8.51172 12.1752 8.51472 12.1912 8.51472 12.1912V26.9682H8.51672C8.53672 27.4832 8.79672 27.8112 9.04472 28.0432C9.82472 28.7312 11.1347 29.1152 12.5297 29.1352C12.9085 29.1328 13.2861 29.0919 13.6567 29.0132V15.5442C13.6467 14.8442 13.9267 14.1722 14.4187 13.6882C14.76 13.3581 15.1649 13.1009 15.6087 12.9322L24.5517 9.05821Z" fill="#A2CFF0"/>
</svg>
