<svg width="48" height="48" viewBox="0 0 48 48" fill="none" xmlns="http://www.w3.org/2000/svg">
<path d="M0 14C0 6.26801 6.26801 0 14 0H34C41.732 0 48 6.26801 48 14V34C48 41.732 41.732 48 34 48H14C6.26801 48 0 41.732 0 34V14Z" fill="#032746"/>
<path d="M24 17C25.5 15.5 26.74 15 28.5 15C29.9587 15 31.3576 15.5795 32.3891 16.6109C33.4205 17.6424 34 19.0413 34 20.5C34 22.79 32.49 24.54 31 26L24 33L17 26C15.5 24.55 14 22.8 14 20.5C14 19.0413 14.5795 17.6424 15.6109 16.6109C16.6424 15.5795 18.0413 15 19.5 15C21.26 15 22.5 15.5 24 17ZM24 17L21.04 19.96C20.8368 20.1617 20.6756 20.4016 20.5655 20.6659C20.4555 20.9302 20.3988 21.2137 20.3988 21.5C20.3988 21.7863 20.4555 22.0698 20.5655 22.3341C20.6756 22.5984 20.8368 22.8383 21.04 23.04C21.86 23.86 23.17 23.89 24.04 23.11L26.11 21.21C26.6289 20.7392 27.3044 20.4784 28.005 20.4784C28.7056 20.4784 29.3811 20.7392 29.9 21.21L32.86 23.87M30 27L28 25M27 30L25 28" stroke="white" stroke-width="2" stroke-linecap="round" stroke-linejoin="round"/>
</svg>
