<svg width="48" height="48" viewBox="0 0 48 48" fill="none" xmlns="http://www.w3.org/2000/svg">
<path d="M0 14C0 6.26801 6.26801 0 14 0H34C41.732 0 48 6.26801 48 14V34C48 41.732 41.732 48 34 48H14C6.26801 48 0 41.732 0 34V14Z" fill="#ED4122"/>
<path d="M24 17.0001C24.0012 16.6001 23.9224 16.2039 23.7682 15.8348C23.614 15.4658 23.3876 15.1313 23.1023 14.851C22.8169 14.5707 22.4784 14.3503 22.1067 14.2028C21.7349 14.0552 21.3374 13.9835 20.9375 13.9919C20.5376 14.0002 20.1434 14.0884 19.7782 14.2513C19.4129 14.4142 19.0838 14.6485 18.8104 14.9405C18.537 15.2324 18.3247 15.576 18.1861 15.9512C18.0474 16.3264 17.9852 16.7255 18.003 17.1251M24 17.0001V30M24 17.0001C23.9988 16.6001 24.0776 16.2039 24.2318 15.8348C24.386 15.4658 24.6124 15.1313 24.8977 14.851C25.1831 14.5707 25.5216 14.3503 25.8934 14.2028C26.2651 14.0552 26.6626 13.9835 27.0625 13.9919C27.4624 14.0002 27.8566 14.0884 28.2219 14.2513C28.5872 14.4142 28.9162 14.6485 29.1896 14.9405C29.463 15.2324 29.6753 15.576 29.814 15.9512C29.9526 16.3264 30.0149 16.7255 29.997 17.1251M18.003 17.1251C17.4152 17.2762 16.8695 17.5591 16.4072 17.9524C15.945 18.3456 15.5783 18.8389 15.3349 19.3949C15.0915 19.9509 14.9778 20.5549 15.0024 21.1614C15.027 21.7678 15.1893 22.3606 15.477 22.8951M18.003 17.1251C18.0228 17.6088 18.1593 18.0805 18.401 18.5001M15.477 22.8951C14.9712 23.306 14.5734 23.8343 14.3184 24.434C14.0633 25.0337 13.9586 25.6866 14.0134 26.336C14.0682 26.9854 14.2808 27.6116 14.6328 28.1601C14.9848 28.7085 15.4655 29.1627 16.033 29.4831M15.477 22.8951C15.66 22.7461 15.8557 22.6145 16.062 22.5001M16.033 29.4831C15.9629 30.0253 16.0048 30.5761 16.1559 31.1016C16.307 31.627 16.5643 32.1159 16.9118 32.538C17.2593 32.9601 17.6896 33.3065 18.1762 33.5558C18.6628 33.8051 19.1954 33.952 19.741 33.9874C20.2866 34.0228 20.8337 33.946 21.3484 33.7617C21.8631 33.5774 22.3346 33.2895 22.7338 32.9158C23.1329 32.5421 23.4512 32.0906 23.669 31.5891C23.8868 31.0876 23.9994 30.5468 24 30M16.033 29.4831C16.6333 29.8216 17.3108 30.0004 18 30.0001M24 30C24.0006 30.5468 24.1133 31.0876 24.331 31.5891C24.5488 32.0906 24.8671 32.5421 25.2663 32.9158C25.6654 33.2895 26.1369 33.5774 26.6516 33.7617C27.1664 33.946 27.7134 34.0228 28.259 33.9874C28.8046 33.952 29.3372 33.8051 29.8238 33.5558C30.3104 33.3065 30.7407 32.9601 31.0882 32.538C31.4357 32.1159 31.693 31.627 31.8441 31.1016C31.9953 30.5761 32.0371 30.0253 31.967 29.4831M29.997 17.1251C30.5848 17.2762 31.1305 17.5591 31.5928 17.9524C32.0551 18.3456 32.4218 18.8389 32.6652 19.3949C32.9086 19.9509 33.0223 20.5549 32.9976 21.1614C32.973 21.7678 32.8107 22.3606 32.523 22.8951M29.997 17.1251C29.9769 17.6089 29.841 18.0806 29.599 18.5001M32.523 22.8951C33.0288 23.306 33.4266 23.8343 33.6817 24.434C33.9368 25.0337 34.0415 25.6866 33.9867 26.336C33.9318 26.9854 33.7192 27.6116 33.3672 28.1601C33.0152 28.7085 32.5345 29.1627 31.967 29.4831M32.523 22.8951C32.3401 22.7461 32.1443 22.6145 31.938 22.5001M31.967 29.4831C31.3667 29.8216 30.6892 30.0004 30 30.0001M27 25.0001C26.1605 24.7047 25.4273 24.167 24.8933 23.4551C24.3593 22.7431 24.0485 21.8887 24 21.0001C23.9516 21.8887 23.6407 22.7431 23.1067 23.4551C22.5727 24.167 21.8396 24.7047 21 25.0001" stroke="white" stroke-width="2" stroke-linecap="round" stroke-linejoin="round"/>
</svg>
