<svg width="48" height="48" viewBox="0 0 48 48" fill="none" xmlns="http://www.w3.org/2000/svg">
<path d="M0 14C0 6.26801 6.26801 0 14 0H34C41.732 0 48 6.26801 48 14V34C48 41.732 41.732 48 34 48H14C6.26801 48 0 41.732 0 34V14Z" fill="#032746"/>
<path d="M22 14V21.527C22.0003 21.838 21.928 22.1448 21.789 22.423L16.72 32.55C16.6429 32.703 16.6064 32.8732 16.614 33.0444C16.6216 33.2155 16.673 33.3818 16.7634 33.5274C16.8537 33.6729 16.9799 33.7928 17.1299 33.8756C17.2799 33.9584 17.4487 34.0012 17.62 34H30.38C30.5513 34.0012 30.72 33.9584 30.87 33.8756C31.02 33.7928 31.1463 33.6729 31.2366 33.5274C31.327 33.3818 31.3784 33.2155 31.386 33.0444C31.3936 32.8732 31.3571 32.703 31.28 32.55L26.211 22.423C26.0719 22.1448 25.9997 21.838 26 21.527V14M20.5 14H27.5M19 28H29" stroke="white" stroke-width="2" stroke-linecap="round" stroke-linejoin="round"/>
</svg>
