<svg width="56" height="56" viewBox="0 0 56 56" fill="none" xmlns="http://www.w3.org/2000/svg">
<path d="M0 16C0 7.16344 7.16344 0 16 0H40C48.8366 0 56 7.16344 56 16V40C56 48.8366 48.8366 56 40 56H16C7.16344 56 0 48.8366 0 40V16Z" fill="#ED4122"/>
<path d="M18.6666 30.3334C18.4458 30.3341 18.2294 30.2722 18.0424 30.1548C17.8554 30.0375 17.7056 29.8694 17.6103 29.6703C17.515 29.4711 17.4781 29.249 17.504 29.0298C17.5299 28.8105 17.6175 28.6031 17.7566 28.4317L29.3066 16.5317C29.3933 16.4317 29.5113 16.3641 29.6414 16.34C29.7715 16.316 29.906 16.3369 30.0226 16.3993C30.1393 16.4617 30.2313 16.5619 30.2835 16.6835C30.3357 16.8051 30.345 16.9408 30.3099 17.0684L28.07 24.0917C28.0039 24.2685 27.9817 24.4586 28.0053 24.6459C28.0289 24.8331 28.0976 25.0118 28.2054 25.1667C28.3132 25.3216 28.457 25.448 28.6244 25.535C28.7919 25.6221 28.9779 25.6673 29.1666 25.6667H37.3333C37.5541 25.6659 37.7705 25.7278 37.9575 25.8452C38.1445 25.9626 38.2943 26.1306 38.3896 26.3298C38.4849 26.5289 38.5218 26.751 38.4959 26.9703C38.47 27.1895 38.3824 27.3969 38.2433 27.5684L26.6933 39.4684C26.6066 39.5684 26.4886 39.6359 26.3585 39.66C26.2284 39.6841 26.0939 39.6632 25.9773 39.6008C25.8606 39.5384 25.7686 39.4381 25.7164 39.3166C25.6642 39.195 25.6549 39.0593 25.69 38.9317L27.9299 31.9084C27.996 31.7316 28.0182 31.5414 27.9946 31.3542C27.971 31.167 27.9023 30.9882 27.7945 30.8334C27.6867 30.6785 27.5429 30.5521 27.3755 30.465C27.208 30.3779 27.022 30.3327 26.8333 30.3334H18.6666Z" stroke="white" stroke-width="2.33333" stroke-linecap="round" stroke-linejoin="round"/>
</svg>
