<svg width="40" height="40" viewBox="0 0 40 40" fill="none" xmlns="http://www.w3.org/2000/svg">
<path d="M23.3333 31.6667C23.3333 32.8934 23.6316 34.0568 24.1616 35.0868C24.3366 35.4284 24.1183 35.8334 23.7349 35.8334H18.3333H11.6666C7.84998 35.8334 5.83331 33.8334 5.83331 30.0334C5.83331 25.7834 8.23331 20.8334 15 20.8334H18.3333H21.6666C25.0033 20.8334 27.2816 22.0401 28.725 23.7668C28.95 24.0368 28.795 24.4352 28.4617 24.5452C25.4734 25.5302 23.3333 28.3401 23.3333 31.6667ZM18.3484 17.5001C22.025 17.5001 25.015 14.5101 25.015 10.8334C25.015 7.15675 22.025 4.16675 18.3484 4.16675C14.6717 4.16675 11.6817 7.15675 11.6817 10.8334C11.6817 14.5101 14.6717 17.5001 18.3484 17.5001ZM35 30.4167H32.9166V28.3334C32.9166 27.6434 32.3566 27.0834 31.6666 27.0834C30.9766 27.0834 30.4166 27.6434 30.4166 28.3334V30.4167H28.3333C27.6433 30.4167 27.0833 30.9767 27.0833 31.6667C27.0833 32.3567 27.6433 32.9167 28.3333 32.9167H30.4166V35.0001C30.4166 35.6901 30.9766 36.2501 31.6666 36.2501C32.3566 36.2501 32.9166 35.6901 32.9166 35.0001V32.9167H35C35.69 32.9167 36.25 32.3567 36.25 31.6667C36.25 30.9767 35.69 30.4167 35 30.4167Z" fill="white"/>
</svg>
