<svg width="74" height="74" viewBox="0 0 74 74" fill="none" xmlns="http://www.w3.org/2000/svg">
<rect width="74" height="74" rx="12" fill="#ED4122"/>
<path d="M33.3 34.2149C33.3 33.6946 33.1266 33.261 32.7797 32.9141C32.4135 32.548 31.9703 32.3649 31.45 32.3649H30.525C29.5036 32.3649 28.6365 32.7214 27.9234 33.4344C27.1911 34.1667 26.825 35.0436 26.825 36.0649V38.8399C26.825 39.8613 27.1815 40.7285 27.8945 41.4415C28.6268 42.1738 29.5036 42.5399 30.525 42.5399H31.45C31.9703 42.5399 32.4039 42.3665 32.7508 42.0196C33.1169 41.6535 33.3 41.2102 33.3 40.6899V34.2149ZM43.475 42.5399C44.4964 42.5399 45.3635 42.1834 46.0766 41.4704C46.8089 40.7381 47.175 39.8613 47.175 38.8399V36.0649C47.175 35.0436 46.8185 34.1764 46.1055 33.4634C45.3732 32.7311 44.4964 32.3649 43.475 32.3649H42.55C42.0297 32.3649 41.5961 32.5384 41.2492 32.8852C40.8831 33.2514 40.7 33.6946 40.7 34.2149V40.6899C40.7 41.2102 40.8734 41.6438 41.2203 41.9907C41.5865 42.3568 42.0297 42.5399 42.55 42.5399H43.475ZM37 22.1899C34.938 22.1899 33.0206 22.585 31.2477 23.3751C29.4747 24.1844 27.9331 25.2636 26.6227 26.6126C25.293 27.9615 24.2427 29.5321 23.4719 31.3243C22.6818 33.1165 22.2578 35.005 22.2 36.9899V37.9149C22.2 38.1654 22.2867 38.3774 22.4602 38.5509C22.6529 38.7436 22.8745 38.8399 23.125 38.8399H24.05C24.3005 38.8399 24.5125 38.7532 24.6859 38.5798C24.8786 38.3871 24.975 38.1654 24.975 37.9149V36.9899C24.975 35.3326 25.293 33.7717 25.9289 32.3071C26.5456 30.8425 27.3935 29.5706 28.4727 28.4915C29.5711 27.393 30.8526 26.5355 32.3172 25.9188C33.7818 25.2829 35.3427 24.9649 37 24.9649C38.6573 24.9649 40.2182 25.2829 41.6828 25.9188C43.1474 26.5355 44.4193 27.3834 45.4984 28.4626C46.5969 29.561 47.4544 30.8425 48.0711 32.3071C48.707 33.7717 49.025 35.3326 49.025 36.9899V46.5579C49.025 47.2324 48.7841 47.8105 48.3023 48.2923C47.8206 48.774 47.2424 49.0149 46.568 49.0149H40.7C40.7 48.2441 40.4302 47.5889 39.8906 47.0493C39.351 46.5097 38.6958 46.2399 37.925 46.2399H36.075C35.3042 46.2399 34.649 46.5097 34.1094 47.0493C33.5698 47.5889 33.3 48.2441 33.3 49.0149C33.3 49.7858 33.5698 50.441 34.1094 50.9805C34.649 51.5201 35.3042 51.7899 36.075 51.7899H46.568C48.0133 51.7899 49.2466 51.2792 50.268 50.2579C51.2893 49.2365 51.8 48.0032 51.8 46.5579V36.9899C51.7422 35.005 51.3182 33.1165 50.5281 31.3243C49.7573 29.5321 48.7167 27.9615 47.4062 26.6126C46.0766 25.2636 44.5253 24.1844 42.7523 23.3751C40.9794 22.585 39.062 22.1899 37 22.1899Z" fill="white"/>
</svg>
