<svg width="40" height="40" viewBox="0 0 40 40" fill="none" xmlns="http://www.w3.org/2000/svg">
<circle cx="20" cy="20" r="20" fill="white"/>
<path opacity="0.12" d="M19.9614 8.75L23.2948 17.4166L31.9614 20.75L23.2948 24.0834L19.9614 32.75L16.6281 24.0834L7.96143 20.75L16.6281 17.4166L19.9614 8.75Z" fill="#66FF6B"/>
<path d="M19.9614 8.75L22.9543 16.2075C23.0797 16.5197 23.1425 16.6759 23.2398 16.8072C23.3262 16.9237 23.4324 17.0254 23.5539 17.1082C23.6909 17.2015 23.8539 17.2616 24.1797 17.3818L31.9614 20.25L24.1797 23.1182C23.8539 23.2384 23.6909 23.2985 23.5539 23.3918C23.4324 23.4746 23.3262 23.5763 23.2398 23.6928C23.1425 23.8241 23.0797 23.9803 22.9543 24.2925L19.9614 31.75L16.9685 24.2925C16.8431 23.9803 16.7804 23.8241 16.683 23.6928C16.5966 23.5763 16.4905 23.4746 16.369 23.3918C16.2319 23.2985 16.069 23.2384 15.7431 23.1182L7.96143 20.25L15.7431 17.3818C16.069 17.2616 16.2319 17.2015 16.369 17.1082C16.4905 17.0254 16.5966 16.9237 16.683 16.8072C16.7804 16.6759 16.8431 16.5197 16.9685 16.2075L19.9614 8.75Z" stroke="#A3D9A5" stroke-width="2.1" stroke-linecap="square" stroke-linejoin="round"/>
</svg>
