<svg width="19" height="18" viewBox="0 0 19 18" fill="none" xmlns="http://www.w3.org/2000/svg">
<path d="M17.8974 17.6827H0.715898C0.320722 17.6827 0 17.3658 0 16.9754C0 16.5849 0.320722 16.2681 0.715898 16.2681H17.8974C18.2926 16.2681 18.6133 16.5849 18.6133 16.9754C18.6133 17.3658 18.2926 17.6827 17.8974 17.6827ZM11.2157 12.7315V1.41461C11.2157 0.471538 10.7385 0 9.78394 0H8.82941C7.87488 0 7.39761 0.471538 7.39761 1.41461V12.7315C7.39761 13.6746 7.87488 14.1461 8.82941 14.1461H9.78394C10.7385 14.1461 11.2157 13.6746 11.2157 12.7315ZM17.8974 12.7315V5.18692C17.8974 4.24384 17.4202 3.77231 16.4657 3.77231H15.5111C14.5566 3.77231 14.0793 4.24384 14.0793 5.18692V12.7315C14.0793 13.6746 14.5566 14.1461 15.5111 14.1461H16.4657C17.4202 14.1461 17.8974 13.6746 17.8974 12.7315ZM4.53402 12.7315V8.01615C4.53402 7.07307 4.05676 6.60153 3.10222 6.60153H2.14769C1.19316 6.60153 0.715898 7.07307 0.715898 8.01615V12.7315C0.715898 13.6746 1.19316 14.1461 2.14769 14.1461H3.10222C4.05676 14.1461 4.53402 13.6746 4.53402 12.7315Z" fill="#032746"/>
</svg>
