<svg width="118" height="118" viewBox="0 0 118 118" fill="none" xmlns="http://www.w3.org/2000/svg">
<g filter="url(#filter0_d_265_895)">
<circle cx="59" cy="57" r="45" fill="white"/>
</g>
<path d="M73.37 50.2874C73.025 48.9964 72.005 47.9757 70.715 47.6304C68.375 47 59 47 59 47C59 47 49.625 47 47.285 47.6304C45.995 47.9757 44.975 48.9964 44.63 50.2874C44 52.629 44 57.5225 44 57.5225C44 57.5225 44 62.416 44.63 64.7577C44.975 66.0486 45.995 67.0243 47.285 67.3696C49.625 68 59 68 59 68C59 68 68.375 68 70.715 67.3696C72.005 67.0243 73.025 66.0486 73.37 64.7577C74 62.416 74 57.5225 74 57.5225C74 57.5225 74 52.629 73.37 50.2874ZM56 62.0107V53.0043L63.5 57.5075L56 62.0107Z" fill="#25314C"/>
<defs>
<filter id="filter0_d_265_895" x="0" y="0" width="118" height="118" filterUnits="userSpaceOnUse" color-interpolation-filters="sRGB">
<feFlood flood-opacity="0" result="BackgroundImageFix"/>
<feColorMatrix in="SourceAlpha" type="matrix" values="0 0 0 0 0 0 0 0 0 0 0 0 0 0 0 0 0 0 127 0" result="hardAlpha"/>
<feOffset dy="2"/>
<feGaussianBlur stdDeviation="7"/>
<feComposite in2="hardAlpha" operator="out"/>
<feColorMatrix type="matrix" values="0 0 0 0 1 0 0 0 0 0.545098 0 0 0 0 0.403922 0 0 0 0.25 0"/>
<feBlend mode="normal" in2="BackgroundImageFix" result="effect1_dropShadow_265_895"/>
<feBlend mode="normal" in="SourceGraphic" in2="effect1_dropShadow_265_895" result="shape"/>
</filter>
</defs>
</svg>
