<svg width="74" height="74" viewBox="0 0 74 74" fill="none" xmlns="http://www.w3.org/2000/svg">
<rect width="74" height="74" rx="12" fill="#ED4122"/>
<path d="M37 23C29.2689 23 23 29.2689 23 37C23 39.5978 23.7156 42.04 24.96 44.14L23 51L29.86 49.04C31.96 50.2845 34.4022 51 37 51C44.7311 51 51 44.7311 51 37C51 29.2689 44.7311 23 37 23ZM44.4978 42.3511C44.1711 43.2689 42.6155 44.1089 41.9155 44.1867C41.2155 44.2644 40.5623 44.5133 37.3267 43.2378C33.4378 41.6822 30.9644 37.6689 30.7778 37.42C30.5911 37.1711 29.2222 35.3356 29.2222 33.4378C29.2222 31.54 30.2022 30.6222 30.56 30.2178C30.9178 29.8289 31.3378 29.7356 31.5867 29.7356C31.8511 29.7356 32.1 29.7355 32.3333 29.7511C32.5978 29.7511 32.9089 29.7511 33.1889 30.4044C33.5311 31.1667 34.2622 33.0644 34.3555 33.2356C34.4489 33.4222 34.5111 33.6555 34.3867 33.9044C34.2467 34.1533 34.1845 34.3244 33.9978 34.5422C33.8111 34.76 33.5934 35.04 33.4222 35.2111C33.22 35.3978 33.0334 35.6 33.2512 35.9889C33.4845 36.3622 34.2467 37.6378 35.3823 38.6489C36.8445 39.9711 38.0733 40.3755 38.4622 40.5622C38.8356 40.7489 39.0688 40.7178 39.2866 40.4689C39.52 40.22 40.2511 39.3489 40.5 38.96C40.7489 38.5867 40.9978 38.6489 41.3555 38.7733C41.7133 38.8978 43.58 39.8467 43.9689 40.0333C44.3422 40.2356 44.6067 40.3289 44.7 40.4845C44.7934 40.64 44.7933 41.4178 44.4822 42.32L44.4978 42.3511Z" fill="white"/>
</svg>
