<svg width="118" height="118" viewBox="0 0 118 118" fill="none" xmlns="http://www.w3.org/2000/svg">
<g filter="url(#filter0_d_265_894)">
<circle cx="59" cy="57" r="45" fill="white"/>
</g>
<path d="M50.7305 71.9833H44.4176V53.0446H50.7305V71.9833ZM51.3634 45.6823C51.3634 43.6835 49.7811 42.0678 47.7822 42.0011C45.7501 41.9512 44.0511 43.5502 44.0011 45.5823C43.9512 47.6145 45.5502 49.3135 47.5823 49.3634C49.6478 49.3801 51.3301 47.7477 51.3634 45.6823ZM73.9001 60.5401C73.9001 54.6436 70.0857 52.8447 66.8376 52.8447C64.5556 52.7781 62.4069 53.8941 61.1576 55.7929V53.0612H55.0612V72H61.3742V62.1725C61.3742 62.0725 61.3742 61.9726 61.3742 61.8727C61.3742 61.8727 61.3742 61.8727 61.3742 61.856C61.2409 59.8405 62.7733 58.0916 64.7888 57.9583C66.4378 57.9583 67.6871 59.0244 67.6871 62.0226V72H74L73.9167 60.5568L73.9001 60.5401Z" fill="#25314C"/>
<defs>
<filter id="filter0_d_265_894" x="0" y="0" width="118" height="118" filterUnits="userSpaceOnUse" color-interpolation-filters="sRGB">
<feFlood flood-opacity="0" result="BackgroundImageFix"/>
<feColorMatrix in="SourceAlpha" type="matrix" values="0 0 0 0 0 0 0 0 0 0 0 0 0 0 0 0 0 0 127 0" result="hardAlpha"/>
<feOffset dy="2"/>
<feGaussianBlur stdDeviation="7"/>
<feComposite in2="hardAlpha" operator="out"/>
<feColorMatrix type="matrix" values="0 0 0 0 1 0 0 0 0 0.545098 0 0 0 0 0.403922 0 0 0 0.25 0"/>
<feBlend mode="normal" in2="BackgroundImageFix" result="effect1_dropShadow_265_894"/>
<feBlend mode="normal" in="SourceGraphic" in2="effect1_dropShadow_265_894" result="shape"/>
</filter>
</defs>
</svg>
