<svg width="74" height="74" viewBox="0 0 74 74" fill="none" xmlns="http://www.w3.org/2000/svg">
<rect width="74" height="74" rx="12" fill="#ED4122"/>
<path d="M46.3333 25.125H27.6667C24.5556 25.125 23 26.6583 23 29.725V43.525C23 46.5917 24.5556 48.125 27.6667 48.125H46.3333C49.4444 48.125 51 46.5917 51 43.525V29.725C51 26.6583 49.4444 25.125 46.3333 25.125ZM46.2414 32.1875L38.6007 37.6646C38.1216 38.0081 37.56 38.1798 37 38.1798C36.44 38.1798 35.8768 38.0081 35.3993 37.6661L27.7586 32.1875C27.2375 31.8149 27.1223 31.0943 27.5018 30.5806C27.8798 30.0685 28.6061 29.9519 29.1318 30.3276L36.7729 35.8047C36.9098 35.9013 37.0917 35.9028 37.2286 35.8047L44.8697 30.3276C45.3939 29.9519 46.1217 30.0685 46.4997 30.5806C46.8792 31.0958 46.7625 31.8149 46.2414 32.1875Z" fill="white"/>
</svg>
