<svg width="118" height="118" viewBox="0 0 118 118" fill="none" xmlns="http://www.w3.org/2000/svg">
<g filter="url(#filter0_d_265_893)">
<circle cx="59" cy="57" r="45" fill="white"/>
</g>
<path d="M73.8999 50.8049C73.7831 48.4035 73.2325 46.269 71.4805 44.5181C69.7286 42.7671 67.5929 42.2168 65.1902 42.1001C62.7041 41.9666 55.2792 41.9666 52.8098 42.1001C50.4071 42.2168 48.2881 42.7671 46.5195 44.5181C44.7509 46.269 44.2169 48.4035 44.1001 50.8049C43.9666 53.2896 43.9666 60.7104 44.1001 63.1951C44.2169 65.5964 44.7675 67.731 46.5195 69.4819C48.2881 71.2329 50.4071 71.7832 52.8098 71.8999C55.2959 72.0334 62.7208 72.0334 65.1902 71.8999C67.5929 71.7832 69.7286 71.2329 71.4805 69.4819C73.2325 67.731 73.7831 65.5964 73.8999 63.1951C74.0334 60.7104 74.0334 53.2896 73.8999 50.8216V50.8049ZM58.9833 64.9127C54.6118 64.9127 51.0579 61.3608 51.0579 56.9917C51.0579 52.6226 54.6118 49.0706 58.9833 49.0706C63.3548 49.0706 66.9088 52.6226 66.9088 56.9917C66.9088 61.3608 63.3548 64.9127 58.9833 64.9127ZM68.1935 49.4875C67.2758 49.4875 66.525 48.7371 66.525 47.8199C66.525 46.9027 67.2592 46.1523 68.1935 46.1523C69.1112 46.1523 69.8621 46.9027 69.8621 47.8199C69.8621 48.7371 69.1112 49.4875 68.1935 49.4875ZM64.406 56.9917C64.406 59.9766 61.97 62.4113 58.9833 62.4113C55.9967 62.4113 53.5606 59.9766 53.5606 56.9917C53.5606 54.0067 55.9967 51.572 58.9833 51.572C61.97 51.572 64.406 54.0067 64.406 56.9917Z" fill="#25314C"/>
<defs>
<filter id="filter0_d_265_893" x="0" y="0" width="118" height="118" filterUnits="userSpaceOnUse" color-interpolation-filters="sRGB">
<feFlood flood-opacity="0" result="BackgroundImageFix"/>
<feColorMatrix in="SourceAlpha" type="matrix" values="0 0 0 0 0 0 0 0 0 0 0 0 0 0 0 0 0 0 127 0" result="hardAlpha"/>
<feOffset dy="2"/>
<feGaussianBlur stdDeviation="7"/>
<feComposite in2="hardAlpha" operator="out"/>
<feColorMatrix type="matrix" values="0 0 0 0 1 0 0 0 0 0.545098 0 0 0 0 0.403922 0 0 0 0.25 0"/>
<feBlend mode="normal" in2="BackgroundImageFix" result="effect1_dropShadow_265_893"/>
<feBlend mode="normal" in="SourceGraphic" in2="effect1_dropShadow_265_893" result="shape"/>
</filter>
</defs>
</svg>
