<svg width="118" height="118" viewBox="0 0 118 118" fill="none" xmlns="http://www.w3.org/2000/svg">
<g filter="url(#filter0_d_265_892)">
<circle cx="59" cy="57" r="45" fill="white"/>
</g>
<path d="M74.5133 51.7036C74.5303 51.9906 74.5303 52.2946 74.5303 52.5985C74.5303 61.6154 67.5227 72 54.6983 72C50.7524 72 47.0785 70.8856 44 68.9437C44.5613 69.0113 45.1056 69.0282 45.6839 69.0282C48.9495 69.0282 51.943 67.9475 54.3412 66.1238C51.2796 66.0563 48.7114 64.0976 47.8269 61.3959C48.2521 61.4634 48.6944 61.4972 49.1366 61.4972C49.7659 61.4972 50.3952 61.4128 50.9735 61.2608C47.7759 60.6191 45.3777 57.8837 45.3777 54.5741V54.4897C46.3132 54.9962 47.3847 55.3171 48.5243 55.3508C46.6533 54.1182 45.4117 52.0413 45.4117 49.6773C45.4117 48.4109 45.7519 47.2458 46.3642 46.2326C49.7999 50.3696 54.9535 53.0713 60.7364 53.3752C60.6343 52.8687 60.5663 52.3452 60.5663 51.8218C60.5663 48.0563 63.6788 45 67.5398 45C69.5468 45 71.3667 45.8274 72.6253 47.1444C74.2071 46.8574 75.7038 46.2833 77.0475 45.5066C76.5372 47.0938 75.4317 48.4278 73.986 49.2551C75.3807 49.1032 76.7414 48.7317 78 48.2082C77.0475 49.5591 75.8569 50.758 74.4962 51.7373L74.5133 51.7036Z" fill="#25314C"/>
<defs>
<filter id="filter0_d_265_892" x="0" y="0" width="118" height="118" filterUnits="userSpaceOnUse" color-interpolation-filters="sRGB">
<feFlood flood-opacity="0" result="BackgroundImageFix"/>
<feColorMatrix in="SourceAlpha" type="matrix" values="0 0 0 0 0 0 0 0 0 0 0 0 0 0 0 0 0 0 127 0" result="hardAlpha"/>
<feOffset dy="2"/>
<feGaussianBlur stdDeviation="7"/>
<feComposite in2="hardAlpha" operator="out"/>
<feColorMatrix type="matrix" values="0 0 0 0 1 0 0 0 0 0.545098 0 0 0 0 0.403922 0 0 0 0.25 0"/>
<feBlend mode="normal" in2="BackgroundImageFix" result="effect1_dropShadow_265_892"/>
<feBlend mode="normal" in="SourceGraphic" in2="effect1_dropShadow_265_892" result="shape"/>
</filter>
</defs>
</svg>
