<svg width="40" height="40" viewBox="0 0 40 40" fill="none" xmlns="http://www.w3.org/2000/svg">
<path d="M0 14C0 6.26801 6.26801 0 14 0H25.3828C33.1148 0 39.3828 6.26801 39.3828 14V26C39.3828 33.732 33.1148 40 25.3828 40H14C6.26801 40 0 33.732 0 26V14Z" fill="#F1F5F9"/>
<path d="M21.9375 12.5H15.1875C14.7897 12.5 14.4081 12.658 14.1268 12.9393C13.8455 13.2206 13.6875 13.6022 13.6875 14V26C13.6875 26.3978 13.8455 26.7794 14.1268 27.0607C14.4081 27.342 14.7897 27.5 15.1875 27.5H24.1875C24.5853 27.5 24.9669 27.342 25.2482 27.0607C25.5295 26.7794 25.6875 26.3978 25.6875 26V16.25L21.9375 12.5Z" stroke="#737373" stroke-width="1.5" stroke-linecap="round" stroke-linejoin="round"/>
<path d="M21.1875 12.5V15.5C21.1875 15.8978 21.3455 16.2794 21.6268 16.5607C21.9081 16.842 22.2897 17 22.6875 17H25.6875" stroke="#737373" stroke-width="1.5" stroke-linecap="round" stroke-linejoin="round"/>
<path d="M18.1875 17.75H16.6875" stroke="#737373" stroke-width="1.5" stroke-linecap="round" stroke-linejoin="round"/>
<path d="M22.6875 20.75H16.6875" stroke="#737373" stroke-width="1.5" stroke-linecap="round" stroke-linejoin="round"/>
<path d="M22.6875 23.75H16.6875" stroke="#737373" stroke-width="1.5" stroke-linecap="round" stroke-linejoin="round"/>
</svg>
