<svg width="40" height="40" viewBox="0 0 40 40" fill="none" xmlns="http://www.w3.org/2000/svg">
<path d="M0 14C0 6.26801 6.26801 0 14 0H26C33.732 0 40 6.26801 40 14V26C40 33.732 33.732 40 26 40H14C6.26801 40 0 33.732 0 26V14Z" fill="url(#paint0_linear_129_1649)"/>
<path d="M16.6667 11.666V14.9993M23.3333 11.666V14.9993M12.5 18.3327H27.5M14.1667 13.3327H25.8333C26.7538 13.3327 27.5 14.0789 27.5 14.9993V26.666C27.5 27.5865 26.7538 28.3327 25.8333 28.3327H14.1667C13.2462 28.3327 12.5 27.5865 12.5 26.666V14.9993C12.5 14.0789 13.2462 13.3327 14.1667 13.3327Z" stroke="white" stroke-width="1.66667" stroke-linecap="round" stroke-linejoin="round"/>
<defs>
<linearGradient id="paint0_linear_129_1649" x1="0" y1="0" x2="40" y2="40" gradientUnits="userSpaceOnUse">
<stop stop-color="#6CA6C1" stop-opacity="0.2"/>
<stop offset="1" stop-color="white" stop-opacity="0.2"/>
</linearGradient>
</defs>
</svg>
