<svg width="40" height="40" viewBox="0 0 40 40" fill="none" xmlns="http://www.w3.org/2000/svg">
  <rect width="40" height="40" rx="6" fill="#ED4122"/>
  <g transform="translate(10 10)">
    <path d="M19.5 4.98194C19.501 4.24594 19.2151 3.55394 18.6941 3.03394L16.4661 0.806033C15.9451 0.286033 15.2551 -0.000997396 14.5181 2.60418e-06C13.7821 0.0010026 13.091 0.288939 12.573 0.809939L0.218994 13.221C0.0779941 13.3619 0 13.552 0 13.75V18.75C0 19.164 0.336 19.5 0.75 19.5H5.75C5.948 19.5 6.13905 19.421 6.27905 19.282L18.6899 6.927C19.2119 6.409 19.499 5.71794 19.5 4.98194ZM5.43994 18.001H1.5V14.061L10.4929 5.02698L14.4751 9.00794L5.43994 18.001ZM17.6321 5.86499L15.5381 7.94995L11.551 3.96399L13.636 1.86902C13.872 1.63202 14.186 1.50198 14.521 1.50098H14.522C14.856 1.50098 15.17 1.63095 15.407 1.86695L17.635 4.09497C17.871 4.33197 18.001 4.64596 18.001 4.98096C18 5.31496 17.8691 5.62899 17.6321 5.86499ZM19.5 18.751C19.5 19.165 19.164 19.501 18.75 19.501H11.75C11.336 19.501 11 19.165 11 18.751C11 18.337 11.336 18.001 11.75 18.001H18.75C19.164 18.001 19.5 18.337 19.5 18.751Z" fill="white"/>
  </g>
</svg>

