<svg width="40" height="40" viewBox="0 0 40 40" fill="none" xmlns="http://www.w3.org/2000/svg">
  <!-- Background -->
  <rect width="40" height="40" rx="6" fill="#ED4122"/>

  <!-- Icon -->
  <g transform="translate(9,9)"> <!-- Adjusted to center inside 40x40 -->
    <path d="M18.8929 17.5186C18.8929 19.7644 17.6542 21 15.4067 21H7.59327C5.34584 21 4.10714 19.7632 4.10714 17.5186C4.10714 14.9899 5.53091 12.0368 9.54496 12.0368H13.454C17.4691 12.0357 18.8929 14.9899 18.8929 17.5186ZM11.5088 9.96116C13.6358 9.96116 15.3652 8.22269 15.3652 6.08633C15.3652 3.94886 13.6347 2.21149 11.5088 2.21149C9.38297 2.21149 7.65356 3.94996 7.65356 6.08633C7.65356 8.22269 9.38187 9.96116 11.5088 9.96116ZM18.9367 7.10762H17.1734C17.0201 7.10762 16.8886 7.21811 16.8557 7.36179C16.6148 8.41174 16.0671 9.35111 15.3114 10.0695C15.1252 10.2463 15.2348 10.5558 15.4867 10.6221C17.4253 11.0863 18.7724 12.2357 19.5719 13.6946C19.6267 13.8162 19.7362 13.8935 19.8786 13.8935H20.3385C22.058 13.8935 23 12.9431 23 11.219C23 9.32905 21.9377 7.10762 18.9367 7.10762ZM17.5348 0.0010793C16.4417 0.0010793 15.4877 0.60558 14.9872 1.49969C14.9467 1.57264 14.9489 1.65334 14.9642 1.72297C14.9806 1.79592 15.0125 1.83468 15.0804 1.89215C16.1526 2.80395 16.8678 4.12464 16.985 5.61777C16.9916 5.70177 17.0201 5.75371 17.0704 5.80786C17.1208 5.86202 17.1963 5.89508 17.296 5.90392C17.3738 5.91055 17.4537 5.91499 17.5348 5.91499C19.1448 5.91499 20.4591 4.58881 20.4591 2.95311C20.4591 1.32735 19.1448 0.0010793 17.5348 0.0010793ZM0 11.219C0 12.9431 0.941964 13.8935 2.66149 13.8935H3.1214C3.26378 13.8935 3.37334 13.8162 3.4281 13.6946C4.22762 12.2357 5.57475 11.0863 7.51332 10.6221C7.76522 10.5558 7.87478 10.2463 7.68859 10.0695C6.93288 9.35111 6.38522 8.41174 6.14427 7.36179C6.11141 7.21811 5.97994 7.10762 5.82661 7.10762H4.06329C1.06234 7.10762 0 9.32905 0 11.219ZM2.54089 2.95203C2.54089 4.58773 3.85523 5.91391 5.46523 5.91391C5.54628 5.91391 5.62625 5.90947 5.70401 5.90284C5.80477 5.894 5.87917 5.86094 5.92955 5.80679C5.97993 5.75263 6.00841 5.70069 6.01499 5.61669C6.13218 4.12356 6.84738 2.80273 7.91962 1.89094C7.98643 1.83347 8.01937 1.79484 8.0358 1.72189C8.05114 1.65227 8.05333 1.57266 8.01281 1.49861C7.51119 0.6045 6.55828 0 5.46523 0C3.85523 0.00110521 2.54089 1.32738 2.54089 2.95203Z" fill="white"/>
  </g>
</svg>
