<svg width="20" height="16" viewBox="0 0 20 16" fill="none" xmlns="http://www.w3.org/2000/svg">
<path d="M0 1.14286C0 0.512 0.448 0 1 0H19C19.552 0 20 0.512 20 1.14286C20 1.77371 19.552 2.28571 19 2.28571H1C0.448 2.28571 0 1.77371 0 1.14286ZM19 6.85714H1C0.448 6.85714 0 7.36914 0 8C0 8.63086 0.448 9.14286 1 9.14286H19C19.552 9.14286 20 8.63086 20 8C20 7.36914 19.552 6.85714 19 6.85714ZM19 13.7143H1C0.448 13.7143 0 14.2263 0 14.8571C0 15.488 0.448 16 1 16H19C19.552 16 20 15.488 20 14.8571C20 14.2263 19.552 13.7143 19 13.7143Z" fill="#032746"/>
</svg>
