<svg width="18" height="17" viewBox="0 0 18 17" fill="none" xmlns="http://www.w3.org/2000/svg">
<path d="M17.646 12.6623L11.7 1.60653C10.548 -0.535511 7.45301 -0.535511 6.30015 1.60653L0.354127 12.6623C-0.702434 14.6272 0.732149 17 2.97757 17H15.0225C17.2671 17 18.7025 14.6263 17.646 12.6623ZM8.32508 6.26293C8.32508 5.8925 8.62747 5.59187 9.00005 5.59187C9.37264 5.59187 9.67503 5.8925 9.67503 6.26293V9.84196C9.67503 10.2124 9.37264 10.513 9.00005 10.513C8.62747 10.513 8.32508 10.2124 8.32508 9.84196V6.26293ZM9.01807 13.421C8.52129 13.421 8.11349 13.0201 8.11349 12.5262C8.11349 12.0323 8.51228 11.6315 9.00906 11.6315H9.01807C9.51575 11.6315 9.91804 12.0323 9.91804 12.5262C9.91804 13.0201 9.51485 13.421 9.01807 13.421Z" fill="#ED4122"/>
</svg>
