<svg width="18" height="18" viewBox="0 0 18 18" fill="none" xmlns="http://www.w3.org/2000/svg">
<path d="M9 0C4.032 0 0 4.032 0 9C0 13.968 4.032 18 9 18C13.968 18 18 13.968 18 9C18 4.032 13.968 0 9 0ZM12.627 7.38001L8.42399 11.574C8.29799 11.709 8.12699 11.772 7.94699 11.772C7.77599 11.772 7.60499 11.709 7.46999 11.574L5.373 9.47703C5.112 9.21603 5.112 8.78397 5.373 8.52297C5.634 8.26197 6.066 8.26197 6.327 8.52297L7.94699 10.143L11.673 6.42601C11.934 6.15601 12.366 6.15601 12.627 6.42601C12.888 6.68701 12.888 7.11001 12.627 7.38001Z" fill="#032746"/>
</svg>
