<svg width="40" height="40" viewBox="0 0 40 40" fill="none" xmlns="http://www.w3.org/2000/svg">
  <!-- Red Background -->
  <rect width="40" height="40" rx="6" fill="#ED4122"/>

  <!-- White Icon (Centered: 10x20 → placed using translate) -->
  <g transform="translate(15,10)">
    <path d="M10.002 13.63C10.002 11.627 8.64299 9.88404 6.69299 9.38904L3.797 8.67102C3.276 8.53902 2.828 8.24695 2.496 7.81995C2.177 7.41695 2.00099 6.902 2.00099 6.37C2.00099 5.06299 3.064 4 4.371 4H5.631C6.839 4 7.852 4.90806 7.987 6.11206C8.049 6.66106 8.545 7.05802 9.092 6.99402C9.641 6.93202 10.036 6.43704 9.974 5.88904C9.738 3.78404 8.03699 2.18898 5.95999 2.03198V1C5.95999 0.45 5.50999 0 4.95999 0C4.40999 0 3.95999 0.45 3.95999 1V2.04199C1.74499 2.25199 0 4.10097 0 6.37097C0 7.34997 0.328998 8.30595 0.919998 9.05396C1.513 9.81896 2.36001 10.3711 3.30901 10.6121L6.205 11.33C7.262 11.598 8 12.544 8 13.631C8 14.26 7.752 14.854 7.302 15.304C6.853 15.754 6.25901 16.001 5.63 16.001H4.37C3.162 16.001 2.14899 15.093 2.01399 13.889C1.95199 13.34 1.453 12.945 0.908997 13.007C0.359997 13.069 -0.0349996 13.5641 0.0270004 14.1121C0.26 16.1901 1.921 17.769 3.961 17.962V19C3.961 19.55 4.411 20 4.961 20C5.511 20 5.961 19.55 5.961 19V17.968C7 17.889 7.971 17.465 8.718 16.718C9.546 15.89 10.002 14.794 10.002 13.63Z" fill="white"/>
  </g>
</svg>
