<svg width="40" height="40" viewBox="0 0 40 40" fill="none" xmlns="http://www.w3.org/2000/svg">
  <!-- Red Background -->
  <rect width="40" height="40" rx="6" fill="#ED4122"/>

  <!-- White Icon (Centered: 18x16 → placed using translate) -->
  <g transform="translate(11,12)"> 
    <path d="M16.9005 15.4205C16.9515 15.7235 16.7175 16.0005 16.4105 16.0005H1.59054C1.28254 16.0005 1.04849 15.7235 1.10049 15.4205L1.50851 13.0005C1.53251 12.8565 1.65753 12.7505 1.80453 12.7505H16.1975C16.3435 12.7505 16.4685 12.8565 16.4935 13.0005L16.9005 15.4205ZM16.4905 3.53049L13.9905 5.0405C13.5385 5.3135 12.9515 5.18148 12.6605 4.74048L9.8215 0.441504C9.4335 -0.146496 8.57051 -0.147503 8.18051 0.440497L5.34054 4.73051C5.05054 5.18051 4.46051 5.31049 4.00051 5.03049L1.51052 3.53049C0.770523 3.08049 -0.149467 3.7205 0.020533 4.5705L1.46749 11.0165C1.49849 11.1535 1.61952 11.2505 1.76052 11.2505H16.2405C16.3805 11.2505 16.5025 11.1535 16.5335 11.0165L17.9805 4.5705C18.1505 3.7205 17.2305 3.08049 16.4905 3.53049Z" fill="white"/>
  </g>
</svg>
