<svg width="40" height="40" viewBox="0 0 40 40" fill="none" xmlns="http://www.w3.org/2000/svg">
  <!-- Red Background -->
  <rect width="40" height="40" rx="6" fill="#ED4122"/>

  <!-- White Icon (Centered) -->
  <g transform="translate(10,10)"> <!-- 20x20 icon placed in 40x40 box -->
    <path d="M19.7707 6.69896L16.308 10.2074C16.1563 10.3611 15.9568 10.4389 15.7573 10.4389C15.5578 10.4389 15.3583 10.3621 15.2066 10.2074L13.4748 8.45266C13.1704 8.14529 13.1704 7.6442 13.4748 7.33578C13.7792 7.02736 14.2727 7.02736 14.5771 7.33578L15.7583 8.53156L18.6704 5.58105C18.9748 5.27263 19.4683 5.27263 19.7727 5.58105C20.0771 5.88948 20.0751 6.39054 19.7707 6.69896ZM7.80129 8.42105C10.0931 8.42105 11.957 6.53263 11.957 4.21053C11.957 1.88842 10.0931 0 7.80129 0C5.50943 0 3.6456 1.88842 3.6456 4.21053C3.6456 6.53263 5.50943 8.42105 7.80129 8.42105ZM9.86974 10.5263H5.71406C1.49604 10.5263 0 13.6558 0 16.3358V19.4737C0 19.7642 0.232718 20 0.51946 20H15.0643C15.3511 20 15.5838 19.7642 15.5838 19.4737V16.3358C15.5838 13.6558 14.0878 10.5263 9.86974 10.5263Z" fill="white"/>
  </g>
</svg>
