<svg width="40" height="40" viewBox="0 0 40 40" fill="none" xmlns="http://www.w3.org/2000/svg">
  <rect width="40" height="40" rx="6" fill="#ED4122"/>
  <g transform="translate(12.5 10)">
    <path d="M13.643 5.18576L13.3239 4.86776C13.2619 4.80476 13.226 4.7208 13.226 4.6318V4.1838C13.226 2.57681 11.918 1.26877 10.311 1.26877H9.86299C9.77499 1.26877 9.6889 1.23272 9.6269 1.17172L9.30903 0.85275C8.17403 -0.28325 6.32498 -0.28525 5.18598 0.85275L4.86811 1.17074C4.80611 1.23274 4.72003 1.26877 4.63203 1.26877H4.18403C2.57703 1.26877 1.26899 2.57681 1.26899 4.1838V4.6318C1.26899 4.7208 1.23409 4.80479 1.17109 4.86679L0.852 5.18673C-0.284 6.32273 -0.284 8.17278 0.852 9.30978L1.17109 9.62777C1.23309 9.69077 1.26899 9.77474 1.26899 9.86374V10.3117C1.26899 11.5367 2.03 12.5828 3.102 13.0138L1.52607 18.5417C1.44807 18.8167 1.53304 19.1128 1.74604 19.3048C1.95704 19.4958 2.26005 19.5508 2.52705 19.4438L5.29512 18.3348C6.55512 17.8328 7.94092 17.8328 9.19892 18.3348L11.9689 19.4448C12.0599 19.4808 12.155 19.4987 12.248 19.4987C12.431 19.4987 12.6099 19.4328 12.7499 19.3058C12.9629 19.1138 13.0479 18.8188 12.9699 18.5428L11.394 13.0147C12.466 12.5837 13.227 11.5377 13.227 10.3127V9.86471C13.227 9.77571 13.2619 9.69173 13.3249 9.62973L13.644 9.31076C14.779 8.17376 14.779 6.32276 13.643 5.18576ZM9.75508 16.9408C8.14008 16.2968 6.35901 16.2958 4.73701 16.9408L3.38691 17.4818L4.60005 13.2268H4.63008C4.71808 13.2268 4.80392 13.2628 4.86592 13.3238L5.18403 13.6428C5.75203 14.2108 6.49804 14.4958 7.24604 14.4958C7.99204 14.4958 8.73905 14.2118 9.30805 13.6428L9.62593 13.3248C9.68793 13.2628 9.77401 13.2268 9.86201 13.2268H9.89204L11.1049 17.4818L9.75508 16.9408ZM12.583 8.24875L12.2641 8.56772C11.9171 8.91372 11.727 9.37474 11.727 9.86374V10.3117C11.727 11.0917 11.092 11.7268 10.312 11.7268H9.86396C9.38096 11.7268 8.90809 11.9227 8.56709 12.2647L8.24897 12.5827C7.71397 13.1167 6.78202 13.1167 6.24702 12.5827L5.9289 12.2638C5.5879 11.9228 5.11603 11.7268 4.63203 11.7268H4.18403C3.40403 11.7268 2.76899 11.0917 2.76899 10.3117V9.86374C2.76899 9.37374 2.57913 8.91374 2.23213 8.56674L1.91304 8.24875C1.36204 7.69675 1.36204 6.79779 1.91304 6.24679L2.23213 5.92782C2.57913 5.58182 2.76899 5.1208 2.76899 4.6318V4.1838C2.76899 3.40381 3.40403 2.76877 4.18403 2.76877H4.63203C5.11503 2.76877 5.5879 2.5728 5.9289 2.2308L6.24702 1.91281C6.78202 1.37881 7.71397 1.37881 8.24897 1.91281L8.56709 2.23178C8.90809 2.57278 9.37996 2.76877 9.86396 2.76877H10.312C11.092 2.76877 11.727 3.40381 11.727 4.1838V4.6318C11.727 5.1218 11.9171 5.5818 12.2641 5.9288L12.583 6.24679C13.134 6.79879 13.134 7.69675 12.583 8.24875ZM9.77705 5.38376C10.07 5.67676 10.07 6.15179 9.77705 6.44479L7.11006 9.11178C6.96906 9.25278 6.77903 9.33175 6.58003 9.33175C6.38103 9.33175 6.19 9.25278 6.05 9.11178L4.71699 7.77878C4.42399 7.48578 4.42399 7.01074 4.71699 6.71774C5.01099 6.42374 5.48603 6.42574 5.77803 6.71774L6.581 7.52072L8.71797 5.38376C9.00997 5.09076 9.48405 5.09076 9.77705 5.38376Z" fill="white"/>
  </g>
</svg>

