<svg width="16" height="15" viewBox="0 0 16 15" fill="none" xmlns="http://www.w3.org/2000/svg">
<path d="M5.77416 6.53846C4.02979 6.53846 2.61137 5.07154 2.61137 3.26923C2.61137 1.46692 4.02979 0 5.77416 0C7.51854 0 8.93695 1.46692 8.93695 3.26923C8.93695 5.07154 7.51854 6.53846 5.77416 6.53846ZM5.77416 1.15385C4.64523 1.15385 3.72765 2.10231 3.72765 3.26923C3.72765 4.43615 4.64523 5.38462 5.77416 5.38462C6.90309 5.38462 7.82068 4.43615 7.82068 3.26923C7.82068 2.10231 6.90235 1.15385 5.77416 1.15385ZM8.74191 15H2.79297C0.992038 15 0 13.9808 0 12.13C0 10.0831 1.12074 7.69231 4.27907 7.69231H7.25581C10.4141 7.69231 11.5349 10.0823 11.5349 12.13C11.5349 13.9808 10.5428 15 8.74191 15ZM4.27907 8.84615C1.34474 8.84615 1.11628 11.3593 1.11628 12.13C1.11628 13.3331 1.6179 13.8462 2.79297 13.8462H8.74191C9.91698 13.8462 10.4186 13.3331 10.4186 12.13C10.4186 11.36 10.1901 8.84615 7.25581 8.84615H4.27907ZM11.3935 6.87688C10.7171 6.87688 10.0815 6.61072 9.60447 6.12765C9.38419 5.90457 9.37975 5.53925 9.59557 5.31156C9.81213 5.08387 10.1655 5.0808 10.3851 5.30311C10.6522 5.57388 11.011 5.72303 11.3935 5.72303C12.2159 5.72303 12.8603 5.05767 12.8603 4.20767C12.8603 3.37229 12.2025 2.69231 11.3935 2.69231C11.1643 2.69231 10.9574 2.74078 10.7781 2.83616C10.505 2.98232 10.1678 2.87003 10.0264 2.58695C9.88504 2.30387 9.99367 1.95617 10.2675 1.81002C10.6069 1.63002 10.9857 1.53846 11.3935 1.53846C12.8179 1.53846 13.9766 2.73613 13.9766 4.20767C13.9758 5.67921 12.8179 6.87688 11.3935 6.87688ZM13.7005 13.4615H13.1944C12.8863 13.4615 12.6363 13.2031 12.6363 12.8846C12.6363 12.5662 12.8863 12.3077 13.1944 12.3077H13.7005C14.5526 12.3077 14.8837 11.9693 14.8837 11.1C14.8837 10.5316 14.7148 8.67695 12.547 8.67695H11.4225C11.1144 8.67695 10.8644 8.41848 10.8644 8.10002C10.8644 7.78156 11.1144 7.5231 11.4225 7.5231H12.547C15.0958 7.5231 16 9.45004 16 11.1C16 12.6008 15.1621 13.4615 13.7005 13.4615Z" fill="white"/>
</svg>
