<svg width="40" height="40" viewBox="0 0 40 40" fill="none" xmlns="http://www.w3.org/2000/svg">
  <rect width="40" height="40" rx="6" fill="#ED4122"/>
  <g transform="translate(11 10)">
    <path d="M13.75 2H13.48C13.383 0.746 12.571 0 11.25 0H6.25C4.929 0 4.11702 0.746 4.02002 2H3.75C1.332 2 0 3.332 0 5.75V15.75C0 18.168 1.332 19.5 3.75 19.5H13.75C16.168 19.5 17.5 18.168 17.5 15.75V5.75C17.5 3.332 16.168 2 13.75 2ZM5.5 2.25C5.5 1.661 5.661 1.5 6.25 1.5H11.25C11.839 1.5 12 1.661 12 2.25V3.25C12 3.839 11.839 4 11.25 4H6.25C5.661 4 5.5 3.839 5.5 3.25V2.25ZM16 15.75C16 17.327 15.327 18 13.75 18H3.75C2.173 18 1.5 17.327 1.5 15.75V5.75C1.5 4.173 2.173 3.5 3.75 3.5H4.02002C4.11702 4.754 4.929 5.5 6.25 5.5H11.25C12.571 5.5 13.383 4.754 13.48 3.5H13.75C15.327 3.5 16 4.173 16 5.75V15.75ZM14 9.75C14 10.164 13.664 10.5 13.25 10.5H9.25C8.836 10.5 8.5 10.164 8.5 9.75C8.5 9.336 8.836 9 9.25 9H13.25C13.664 9 14 9.336 14 9.75ZM14 13.75C14 14.164 13.664 14.5 13.25 14.5H9.25C8.836 14.5 8.5 14.164 8.5 13.75C8.5 13.336 8.836 13 9.25 13H13.25C13.664 13 14 13.336 14 13.75ZM6.78003 8.55298C7.07303 8.84598 7.07303 9.32101 6.78003 9.61401L5.44702 10.947C5.30602 11.088 5.11599 11.167 4.91699 11.167C4.71799 11.167 4.52696 11.088 4.38696 10.948L3.71997 10.281C3.42697 9.98801 3.42697 9.51297 3.71997 9.21997C4.01297 8.92697 4.48801 8.92697 4.78101 9.21997L4.91797 9.35699L5.72095 8.55402C6.01295 8.26002 6.48703 8.25998 6.78003 8.55298ZM6.78003 12.553C7.07303 12.846 7.07303 13.321 6.78003 13.614L5.44702 14.947C5.30602 15.088 5.11599 15.167 4.91699 15.167C4.71799 15.167 4.52696 15.088 4.38696 14.948L3.71997 14.281C3.42697 13.988 3.42697 13.513 3.71997 13.22C4.01297 12.927 4.48801 12.927 4.78101 13.22L4.91797 13.357L5.72095 12.554C6.01295 12.26 6.48703 12.26 6.78003 12.553Z" fill="white"/>
  </g>
</svg>

