<svg width="19" height="20" viewBox="0 0 19 20" fill="none" xmlns="http://www.w3.org/2000/svg">
<path d="M9.55176 5.34473C12.1357 5.34473 14.2686 7.47754 14.2686 10.0615C14.2686 12.6865 12.1357 14.7783 9.55176 14.7783C6.92676 14.7783 4.83496 12.6865 4.83496 10.0615C4.83496 7.47754 6.92676 5.34473 9.55176 5.34473ZM9.55176 13.1377C11.2334 13.1377 12.5869 11.7842 12.5869 10.0615C12.5869 8.37988 11.2334 7.02637 9.55176 7.02637C7.8291 7.02637 6.47559 8.37988 6.47559 10.0615C6.47559 11.7842 7.87012 13.1377 9.55176 13.1377ZM15.54 5.18066C15.54 4.56543 15.0479 4.07324 14.4326 4.07324C13.8174 4.07324 13.3252 4.56543 13.3252 5.18066C13.3252 5.7959 13.8174 6.28809 14.4326 6.28809C15.0479 6.28809 15.54 5.7959 15.54 5.18066ZM18.6572 6.28809C18.7393 7.80566 18.7393 12.3584 18.6572 13.876C18.5752 15.3525 18.2471 16.624 17.1807 17.7314C16.1143 18.7979 14.8018 19.126 13.3252 19.208C11.8076 19.29 7.25488 19.29 5.7373 19.208C4.26074 19.126 2.98926 18.7979 1.88184 17.7314C0.81543 16.624 0.487305 15.3525 0.405273 13.876C0.323242 12.3584 0.323242 7.80566 0.405273 6.28809C0.487305 4.81152 0.81543 3.49902 1.88184 2.43262C2.98926 1.36621 4.26074 1.03809 5.7373 0.956055C7.25488 0.874023 11.8076 0.874023 13.3252 0.956055C14.8018 1.03809 16.1143 1.36621 17.1807 2.43262C18.2471 3.49902 18.5752 4.81152 18.6572 6.28809ZM16.6885 15.4756C17.1807 14.2861 17.0576 11.415 17.0576 10.0615C17.0576 8.74902 17.1807 5.87793 16.6885 4.64746C16.3604 3.86816 15.7451 3.21191 14.9658 2.9248C13.7354 2.43262 10.8643 2.55566 9.55176 2.55566C8.19824 2.55566 5.32715 2.43262 4.1377 2.9248C3.31738 3.25293 2.70215 3.86816 2.37402 4.64746C1.88184 5.87793 2.00488 8.74902 2.00488 10.0615C2.00488 11.415 1.88184 14.2861 2.37402 15.4756C2.70215 16.2959 3.31738 16.9111 4.1377 17.2393C5.32715 17.7314 8.19824 17.6084 9.55176 17.6084C10.8643 17.6084 13.7354 17.7314 14.9658 17.2393C15.7451 16.9111 16.4014 16.2959 16.6885 15.4756Z" fill="white"/>
</svg>
