<svg width="20" height="20" viewBox="0 0 20 20" fill="none" xmlns="http://www.w3.org/2000/svg">
<path d="M17.7812 0.874023C18.4785 0.874023 19.0938 1.48926 19.0938 2.22754V17.9365C19.0938 18.6748 18.4785 19.249 17.7812 19.249H1.99023C1.29297 19.249 0.71875 18.6748 0.71875 17.9365V2.22754C0.71875 1.48926 1.29297 0.874023 1.99023 0.874023H17.7812ZM6.25586 16.624V7.8877H3.54883V16.624H6.25586ZM4.90234 6.65723C5.76367 6.65723 6.46094 5.95996 6.46094 5.09863C6.46094 4.2373 5.76367 3.49902 4.90234 3.49902C4 3.49902 3.30273 4.2373 3.30273 5.09863C3.30273 5.95996 4 6.65723 4.90234 6.65723ZM16.4688 16.624V11.8252C16.4688 9.4873 15.9355 7.6416 13.1875 7.6416C11.875 7.6416 10.9727 8.37988 10.6035 9.07715H10.5625V7.8877H7.97852V16.624H10.6855V12.3174C10.6855 11.1689 10.8906 10.0615 12.3262 10.0615C13.7207 10.0615 13.7207 11.374 13.7207 12.3584V16.624H16.4688Z" fill="white"/>
</svg>
