<svg width="21" height="19" viewBox="0 0 21 19" fill="none" xmlns="http://www.w3.org/2000/svg">
<path d="M10.3401 5.7399L13.3462 8.74604L13.3605 8.58857C13.3605 7.00914 12.077 5.72559 10.4976 5.72559L10.3401 5.7399Z" fill="black"/>
<path d="M10.4975 3.81745C13.1315 3.81745 15.2692 5.95516 15.2692 8.58911C15.2692 9.20465 15.1451 9.79156 14.9304 10.3307L17.7218 13.1222C19.1628 11.9197 20.2985 10.3642 20.9999 8.58911C19.3442 4.39962 15.274 1.43164 10.4976 1.43164C9.16149 1.43164 7.88272 1.67021 6.69458 2.09966L8.75593 4.15622C9.29507 3.94628 9.88198 3.81745 10.4975 3.81745Z" fill="black"/>
<path d="M0.954313 1.21677L3.13018 3.39264L3.56442 3.82687C1.98977 5.05796 0.744376 6.69464 0 8.58896C1.651 12.7784 5.72597 15.7464 10.4976 15.7464C11.9769 15.7464 13.3892 15.4601 14.6824 14.94L15.088 15.3456L17.8699 18.1322L19.0866 16.9202L2.17108 0L0.954313 1.21677ZM6.23178 6.48945L7.70622 7.96389C7.66327 8.16908 7.63464 8.37423 7.63464 8.58896C7.63464 10.1684 8.9182 11.4519 10.4976 11.4519C10.7124 11.4519 10.9175 11.4233 11.118 11.3804L12.5924 12.8548C11.9577 13.1697 11.2516 13.3606 10.4976 13.3606C7.86368 13.3606 5.72597 11.2229 5.72597 8.58896C5.72597 7.83505 5.91685 7.12883 6.23178 6.48945Z" fill="black"/>
</svg>
