<svg width="21" height="14" viewBox="0 0 21 14" fill="none" xmlns="http://www.w3.org/2000/svg">
<path d="M13.7083 7C13.7083 8.517 12.2698 9.75 10.5 9.75C8.73018 9.75 7.29168 8.517 7.29168 7C7.29168 6.651 7.37559 6.31996 7.51442 6.01196C7.74075 6.16596 8.01383 6.27197 8.32533 6.27197C9.05682 6.27197 9.65064 5.76299 9.65064 5.13599C9.65064 4.86899 9.52696 4.63492 9.3473 4.44092C9.70663 4.32192 10.0928 4.25 10.5 4.25C12.2698 4.25 13.7083 5.483 13.7083 7ZM20.524 8.47705C19.0925 10.5311 15.8771 14 10.5 14C5.12286 14 1.90749 10.5311 0.475998 8.47705C-0.158666 7.56705 -0.158666 6.43295 0.475998 5.52295C1.90749 3.46895 5.12286 0 10.5 0C15.8771 0 19.0925 3.46895 20.524 5.52295C21.1587 6.43295 21.1587 7.56705 20.524 8.47705ZM15.4583 7C15.4583 4.657 13.2347 2.75 10.5 2.75C7.76535 2.75 5.54169 4.657 5.54169 7C5.54169 9.343 7.76535 11.25 10.5 11.25C13.2347 11.25 15.4583 9.343 15.4583 7Z" fill="black"/>
</svg>
